<?xml version="1.0" encoding="UTF-8"?><svg id="Layer_2" xmlns="http://www.w3.org/2000/svg" viewBox="0 0 174.39 233.95"><defs><style>.cls-1{fill:#e6e4e3;}.cls-2{fill:#ffd400;}.cls-3{fill:#ff7cff;}</style></defs><rect x="12.9" y="93.63" width="4.25" height="4.25"/><rect x="12.9" y="89.38" width="4.25" height="4.25"/><rect x="17.15" y="93.63" width="4.25" height="4.25"/><rect x="21.4" y="93.63" width="4.25" height="4.25"/><rect x="25.64" y="93.63" width="4.25" height="4.25"/><rect x="29.89" y="93.63" width="4.25" height="4.25"/><rect x="34.14" y="93.63" width="4.25" height="4.25"/><rect x="38.39" y="93.63" width="4.25" height="4.25"/><rect x="42.63" y="93.63" width="4.25" height="4.25"/><rect x="46.88" y="93.63" width="4.25" height="4.25"/><rect x="51.13" y="93.63" width="4.25" height="4.25"/><rect x="55.38" y="93.63" width="4.25" height="4.25"/><rect x="59.63" y="93.63" width="4.25" height="4.25"/><rect x="63.87" y="93.63" width="4.25" height="4.25"/><rect x="68.12" y="93.63" width="4.25" height="4.25"/><rect x="72.37" y="93.63" width="4.25" height="4.25"/><rect x="76.62" y="93.63" width="4.25" height="4.25"/><rect x="80.86" y="93.63" width="4.25" height="4.25"/><rect x="85.11" y="93.63" width="4.25" height="4.25"/><rect x="89.36" y="93.63" width="4.25" height="4.25"/><rect x="93.61" y="93.63" width="4.25" height="4.25"/><rect x="97.85" y="93.63" width="4.25" height="4.25"/><rect x="17.15" y="97.88" width="4.25" height="4.25"/><rect x="21.4" y="97.88" width="4.25" height="4.25"/><rect x="25.64" y="97.88" width="4.25" height="4.25"/><rect x="29.89" y="97.88" width="4.25" height="4.25"/><rect x="34.14" y="97.88" width="4.25" height="4.25"/><rect x="38.39" y="97.88" width="4.25" height="4.25"/><rect x="42.63" y="97.88" width="4.25" height="4.25"/><rect x="46.88" y="97.88" width="4.25" height="4.25"/><rect x="51.13" y="97.88" width="4.25" height="4.25"/><rect x="55.38" y="97.88" width="4.25" height="4.25"/><rect x="59.63" y="97.88" width="4.25" height="4.25"/><rect x="63.87" y="97.88" width="4.25" height="4.25"/><rect x="68.12" y="97.88" width="4.25" height="4.25"/><rect x="72.37" y="97.88" width="4.25" height="4.25"/><rect x="76.62" y="97.88" width="4.25" height="4.25"/><rect x="80.86" y="97.88" width="4.25" height="4.25"/><rect x="85.11" y="97.88" width="4.25" height="4.25"/><rect x="89.36" y="97.88" width="4.25" height="4.25"/><rect x="93.61" y="97.88" width="4.25" height="4.25"/><rect x="25.64" y="102.12" width="4.25" height="4.25"/><rect x="29.89" y="102.12" width="4.25" height="4.25"/><rect x="34.14" y="102.12" width="4.25" height="4.25"/><rect x="38.39" y="102.12" width="4.25" height="4.25"/><rect x="42.63" y="102.12" width="4.25" height="4.25"/><rect x="46.88" y="102.12" width="4.25" height="4.25"/><rect x="51.13" y="102.12" width="4.25" height="4.25"/><rect x="55.38" y="102.12" width="4.25" height="4.25"/><rect x="59.63" y="102.12" width="4.25" height="4.25"/><rect x="63.87" y="102.12" width="4.25" height="4.25"/><rect x="68.12" y="102.12" width="4.25" height="4.25"/><rect x="72.37" y="102.12" width="4.25" height="4.25"/><rect x="76.62" y="102.12" width="4.25" height="4.25"/><rect x="80.86" y="102.12" width="4.25" height="4.25"/><rect x="85.11" y="102.12" width="4.25" height="4.25"/><rect x="34.14" y="106.37" width="4.25" height="4.25"/><rect x="38.39" y="106.37" width="4.25" height="4.25"/><rect x="42.63" y="106.37" width="4.25" height="4.25"/><rect x="46.88" y="106.37" width="4.25" height="4.25"/><rect x="51.13" y="106.37" width="4.25" height="4.25"/><rect x="55.38" y="106.37" width="4.25" height="4.25"/><rect x="59.63" y="106.37" width="4.25" height="4.25"/><rect x="63.87" y="106.37" width="4.25" height="4.25"/><rect x="68.12" y="106.37" width="4.25" height="4.25"/><rect x="72.37" y="106.37" width="4.25" height="4.25"/><rect x="76.62" y="106.37" width="4.25" height="4.25"/><rect x="80.86" y="106.37" width="4.25" height="4.25"/><rect x="38.39" y="110.62" width="4.25" height="4.25"/><rect x="42.63" y="110.62" width="4.25" height="4.25"/><rect x="46.88" y="110.62" width="4.25" height="4.25"/><rect x="51.13" y="110.62" width="4.25" height="4.25"/><rect x="55.38" y="110.62" width="4.25" height="4.25"/><rect x="59.63" y="110.62" width="4.25" height="4.25"/><rect x="63.87" y="110.62" width="4.25" height="4.25"/><rect x="68.12" y="110.62" width="4.25" height="4.25"/><rect x="72.37" y="110.62" width="4.25" height="4.25"/><rect x="46.88" y="114.87" width="4.25" height="4.25"/><rect x="51.13" y="114.87" width="4.25" height="4.25"/><rect x="55.38" y="114.87" width="4.25" height="4.25"/><rect x="59.63" y="114.87" width="4.25" height="4.25"/><rect x="63.87" y="114.87" width="4.25" height="4.25"/><rect x="55.38" y="119.11" width="4.25" height="4.25"/><rect x="59.63" y="119.11" width="4.25" height="4.25"/><rect x="63.87" y="119.11" width="4.25" height="4.25"/><rect x="68.12" y="114.87" width="4.25" height="4.25"/><rect x="72.37" y="114.87" width="4.25" height="4.25"/><rect x="76.62" y="157.34" width="4.25" height="4.25"/><rect x="76.62" y="161.59" width="4.25" height="4.25"/><rect x="80.86" y="165.84" width="4.25" height="4.25"/><rect x="80.86" y="144.6" width="4.25" height="4.25"/><rect x="80.86" y="140.35" width="4.25" height="4.25"/><rect x="85.11" y="136.1" width="4.25" height="4.25"/><rect x="89.36" y="131.86" width="4.25" height="4.25"/><rect x="85.11" y="165.84" width="4.25" height="4.25"/><rect x="89.36" y="161.59" width="4.25" height="4.25"/><rect x="93.61" y="161.59" width="4.25" height="4.25"/><rect x="97.85" y="157.34" width="4.25" height="4.25"/><rect x="97.85" y="153.1" width="4.25" height="4.25"/><rect x="102.1" y="148.85" width="4.25" height="4.25"/><rect x="102.1" y="144.6" width="4.25" height="4.25"/><rect x="102.1" y="140.35" width="4.25" height="4.25"/><rect x="102.1" y="136.1" width="4.25" height="4.25"/><rect class="cls-2" x="97.85" y="148.85" width="4.25" height="4.25"/><rect class="cls-2" x="97.85" y="144.6" width="4.25" height="4.25"/><rect class="cls-2" x="97.85" y="140.35" width="4.25" height="4.25"/><rect class="cls-2" x="97.85" y="136.1" width="4.25" height="4.25"/><rect class="cls-2" x="93.61" y="157.34" width="4.25" height="4.25"/><rect class="cls-2" x="93.61" y="153.1" width="4.25" height="4.25"/><rect class="cls-2" x="93.61" y="148.85" width="4.25" height="4.25"/><rect class="cls-2" x="93.61" y="144.6" width="4.25" height="4.25"/><rect class="cls-2" x="89.36" y="157.34" width="4.25" height="4.25"/><rect class="cls-2" x="89.36" y="153.1" width="4.25" height="4.25"/><rect class="cls-2" x="89.36" y="148.85" width="4.25" height="4.25"/><rect class="cls-2" x="89.36" y="144.6" width="4.25" height="4.25"/><rect class="cls-2" x="93.61" y="140.35" width="4.25" height="4.25"/><rect class="cls-2" x="93.61" y="136.1" width="4.25" height="4.25"/><rect class="cls-2" x="89.36" y="140.35" width="4.25" height="4.25"/><rect class="cls-2" x="85.11" y="140.35" width="4.25" height="4.25"/><rect class="cls-2" x="89.36" y="136.1" width="4.25" height="4.25"/><rect class="cls-2" x="85.11" y="157.34" width="4.25" height="4.25"/><rect class="cls-2" x="85.11" y="153.1" width="4.25" height="4.25"/><rect class="cls-2" x="85.11" y="148.85" width="4.25" height="4.25"/><rect class="cls-2" x="80.86" y="157.34" width="4.25" height="4.25"/><rect class="cls-2" x="85.11" y="161.59" width="4.25" height="4.25"/><rect class="cls-2" x="80.86" y="161.59" width="4.25" height="4.25"/><rect class="cls-2" x="80.86" y="153.1" width="4.25" height="4.25"/><rect class="cls-2" x="80.86" y="148.85" width="4.25" height="4.25"/><rect class="cls-2" x="85.11" y="144.6" width="4.25" height="4.25"/><rect x="97.85" y="131.86" width="4.25" height="4.25"/><rect x="93.61" y="131.86" width="4.25" height="4.25"/><rect x="76.62" y="153.1" width="4.25" height="4.25"/><rect x="76.62" y="148.85" width="4.25" height="4.25"/><rect x="119.09" y="131.86" width="4.25" height="4.25"/><rect x="119.09" y="136.1" width="4.25" height="4.25"/><rect x="123.34" y="140.35" width="4.25" height="4.25"/><rect x="123.34" y="119.11" width="4.25" height="4.25"/><rect x="123.34" y="114.87" width="4.25" height="4.25"/><rect x="127.59" y="110.62" width="4.25" height="4.25"/><rect x="131.84" y="106.37" width="4.25" height="4.25"/><rect x="127.59" y="140.35" width="4.25" height="4.25"/><rect x="131.84" y="136.1" width="4.25" height="4.25"/><rect x="136.08" y="136.11" width="4.25" height="4.25"/><rect x="140.33" y="131.86" width="4.25" height="4.25"/><rect x="140.33" y="127.61" width="4.25" height="4.25"/><rect x="144.58" y="123.36" width="4.25" height="4.25"/><rect x="144.58" y="119.11" width="4.25" height="4.25"/><rect x="144.58" y="114.87" width="4.25" height="4.25"/><rect x="144.58" y="110.62" width="4.25" height="4.25"/><rect class="cls-2" x="140.33" y="123.36" width="4.25" height="4.25"/><rect class="cls-2" x="140.33" y="119.11" width="4.25" height="4.25"/><rect class="cls-2" x="140.33" y="114.87" width="4.25" height="4.25"/><rect class="cls-2" x="140.33" y="110.62" width="4.25" height="4.25"/><rect class="cls-2" x="136.08" y="131.86" width="4.25" height="4.25"/><rect class="cls-2" x="136.08" y="127.61" width="4.25" height="4.25"/><rect class="cls-2" x="136.08" y="123.36" width="4.25" height="4.25"/><rect class="cls-2" x="136.08" y="119.11" width="4.25" height="4.25"/><rect class="cls-2" x="131.84" y="131.86" width="4.25" height="4.25"/><rect class="cls-2" x="131.84" y="127.61" width="4.25" height="4.25"/><rect class="cls-2" x="131.84" y="123.36" width="4.25" height="4.25"/><rect class="cls-2" x="131.84" y="119.11" width="4.25" height="4.25"/><rect class="cls-2" x="136.08" y="114.87" width="4.25" height="4.25"/><rect class="cls-2" x="136.08" y="110.62" width="4.25" height="4.25"/><rect class="cls-2" x="131.84" y="114.87" width="4.25" height="4.25"/><rect class="cls-2" x="127.59" y="114.87" width="4.25" height="4.25"/><rect class="cls-2" x="131.84" y="110.62" width="4.25" height="4.25"/><rect class="cls-2" x="127.59" y="131.86" width="4.25" height="4.25"/><rect class="cls-2" x="127.59" y="127.61" width="4.25" height="4.25"/><rect class="cls-2" x="127.59" y="123.36" width="4.25" height="4.25"/><rect class="cls-2" x="123.34" y="131.86" width="4.25" height="4.25"/><rect class="cls-2" x="127.59" y="136.1" width="4.25" height="4.25"/><rect class="cls-2" x="123.34" y="136.1" width="4.25" height="4.25"/><rect class="cls-2" x="123.34" y="127.61" width="4.25" height="4.25"/><rect class="cls-2" x="123.34" y="123.36" width="4.25" height="4.25"/><rect class="cls-2" x="127.59" y="119.11" width="4.25" height="4.25"/><rect x="140.33" y="106.37" width="4.25" height="4.25"/><rect x="136.08" y="106.37" width="4.25" height="4.25"/><rect x="119.09" y="127.61" width="4.25" height="4.25"/><rect x="119.09" y="123.36" width="4.25" height="4.25"/><rect x="76.62" y="110.62" width="4.25" height="4.25"/><rect x="80.86" y="110.62" width="4.25" height="4.25"/><rect x="85.11" y="106.37" width="4.25" height="4.25"/><rect x="89.36" y="102.12" width="4.25" height="4.25"/><rect x="93.61" y="102.12" width="4.25" height="4.25"/><rect x="97.85" y="97.88" width="4.25" height="4.25"/><rect x="102.1" y="97.88" width="4.25" height="4.25"/><rect x="114.84" y="89.38" width="4.25" height="4.25"/><rect x="119.09" y="85.13" width="4.25" height="4.25"/><rect x="102.1" y="93.63" width="4.25" height="4.25"/><rect x="106.35" y="93.63" width="4.25" height="4.25"/><rect x="17.15" y="89.38" width="4.25" height="4.25"/><rect x="21.4" y="89.38" width="4.25" height="4.25"/><rect x="25.64" y="89.38" width="4.25" height="4.25"/><rect x="29.89" y="89.38" width="4.25" height="4.25"/><rect x="34.14" y="89.38" width="4.25" height="4.25"/><rect x="38.39" y="89.38" width="4.25" height="4.25"/><rect x="42.63" y="89.38" width="4.25" height="4.25"/><rect x="46.88" y="89.38" width="4.25" height="4.25"/><rect x="51.13" y="89.38" width="4.25" height="4.25"/><rect x="55.38" y="89.38" width="4.25" height="4.25"/><rect x="59.63" y="89.38" width="4.25" height="4.25"/><rect x="63.87" y="89.38" width="4.25" height="4.25"/><rect x="68.12" y="89.38" width="4.25" height="4.25"/><rect x="72.37" y="89.38" width="4.25" height="4.25"/><rect x="76.62" y="89.38" width="4.25" height="4.25"/><rect x="80.86" y="89.38" width="4.25" height="4.25"/><rect x="85.11" y="89.38" width="4.25" height="4.25"/><rect x="89.36" y="89.38" width="4.25" height="4.25"/><rect x="93.61" y="89.38" width="4.25" height="4.25"/><rect x="97.85" y="89.38" width="4.25" height="4.25"/><rect x="102.1" y="89.38" width="4.25" height="4.25"/><rect x="106.35" y="89.38" width="4.25" height="4.25"/><rect x="110.6" y="89.38" width="4.25" height="4.25"/><rect x="21.4" y="85.13" width="4.25" height="4.25"/><rect x="25.64" y="85.13" width="4.25" height="4.25"/><rect x="29.89" y="85.13" width="4.25" height="4.25"/><rect x="34.14" y="85.13" width="4.25" height="4.25"/><rect x="38.39" y="85.13" width="4.25" height="4.25"/><rect x="42.63" y="85.13" width="4.25" height="4.25"/><rect x="46.88" y="85.13" width="4.25" height="4.25"/><rect x="51.13" y="85.13" width="4.25" height="4.25"/><rect x="55.38" y="85.13" width="4.25" height="4.25"/><rect x="59.63" y="85.13" width="4.25" height="4.25"/><rect x="63.87" y="85.13" width="4.25" height="4.25"/><rect x="68.12" y="85.13" width="4.25" height="4.25"/><rect x="72.37" y="85.13" width="4.25" height="4.25"/><rect x="76.62" y="85.13" width="4.25" height="4.25"/><rect x="80.86" y="85.13" width="4.25" height="4.25"/><rect x="85.11" y="85.13" width="4.25" height="4.25"/><rect x="89.36" y="85.13" width="4.25" height="4.25"/><rect x="93.61" y="85.13" width="4.25" height="4.25"/><rect x="97.85" y="85.13" width="4.25" height="4.25"/><rect x="102.1" y="85.13" width="4.25" height="4.25"/><rect x="106.35" y="85.13" width="4.25" height="4.25"/><rect x="110.6" y="85.13" width="4.25" height="4.25"/><rect x="114.84" y="85.13" width="4.25" height="4.25"/><rect x="29.89" y="80.89" width="4.25" height="4.25"/><rect x="34.14" y="80.89" width="4.25" height="4.25"/><rect x="38.39" y="80.89" width="4.25" height="4.25"/><rect x="42.63" y="80.89" width="4.25" height="4.25"/><rect x="46.88" y="80.89" width="4.25" height="4.25"/><rect x="51.13" y="80.89" width="4.25" height="4.25"/><rect x="55.38" y="80.89" width="4.25" height="4.25"/><rect x="59.63" y="80.89" width="4.25" height="4.25"/><rect x="63.87" y="80.89" width="4.25" height="4.25"/><rect x="68.12" y="80.89" width="4.25" height="4.25"/><rect x="72.37" y="80.89" width="4.25" height="4.25"/><rect x="76.62" y="80.89" width="4.25" height="4.25"/><rect x="38.39" y="76.64" width="4.25" height="4.25"/><rect x="42.63" y="76.64" width="4.25" height="4.25"/><rect x="46.88" y="76.64" width="4.25" height="4.25"/><rect x="51.13" y="76.64" width="4.25" height="4.25"/><rect x="55.38" y="76.64" width="4.25" height="4.25"/><rect x="59.63" y="76.64" width="4.25" height="4.25"/><rect x="63.87" y="76.64" width="4.25" height="4.25"/><rect x="68.12" y="76.64" width="4.25" height="4.25"/><rect x="72.37" y="76.64" width="4.25" height="4.25"/><rect x="76.62" y="76.64" width="4.25" height="4.25"/><rect x="46.88" y="72.39" width="4.25" height="4.25"/><rect x="51.13" y="72.39" width="4.25" height="4.25"/><rect x="55.38" y="72.39" width="4.25" height="4.25"/><rect x="59.63" y="72.39" width="4.25" height="4.25"/><rect x="63.87" y="72.39" width="4.25" height="4.25"/><rect x="68.12" y="72.39" width="4.25" height="4.25"/><rect x="72.37" y="72.39" width="4.25" height="4.25"/><rect x="76.62" y="72.39" width="4.25" height="4.25"/><rect x="51.13" y="68.14" width="4.25" height="4.25"/><rect x="55.38" y="68.14" width="4.25" height="4.25"/><rect x="59.63" y="68.14" width="4.25" height="4.25"/><rect x="59.63" y="148.85" width="4.25" height="4.25"/><rect x="59.63" y="153.1" width="4.25" height="4.25"/><rect x="59.63" y="157.34" width="4.25" height="4.25"/><rect x="59.63" y="161.59" width="4.25" height="4.25"/><rect x="59.63" y="165.84" width="4.25" height="4.25"/><rect x="59.63" y="170.09" width="4.25" height="4.25"/><rect x="59.63" y="174.33" width="4.25" height="4.25"/><rect x="59.63" y="144.6" width="4.25" height="4.25"/><rect x="59.63" y="140.35" width="4.25" height="4.25"/><rect x="59.63" y="136.1" width="4.25" height="4.25"/><rect x="59.63" y="131.86" width="4.25" height="4.25"/><rect x="59.63" y="127.61" width="4.25" height="4.25"/><rect x="59.63" y="123.36" width="4.25" height="4.25"/><rect x="59.63" y="204.07" width="4.25" height="4.25"/><rect x="59.63" y="208.31" width="4.25" height="4.25"/><rect x="59.63" y="212.56" width="4.25" height="4.25"/><rect x="59.63" y="216.81" width="4.25" height="4.25"/><rect x="59.63" y="221.06" width="4.25" height="4.25"/><rect x="59.63" y="225.31" width="4.25" height="4.25"/><rect x="59.63" y="229.55" width="4.25" height="4.25"/><rect x="59.63" y="199.82" width="4.25" height="4.25"/><rect x="59.63" y="195.57" width="4.25" height="4.25"/><rect x="59.63" y="191.32" width="4.25" height="4.25"/><rect x="59.63" y="187.08" width="4.25" height="4.25"/><rect x="59.63" y="182.83" width="4.25" height="4.25"/><rect x="59.63" y="178.58" width="4.25" height="4.25"/><rect x="157.32" y="93.63" width="4.25" height="4.25"/><rect x="161.57" y="97.88" width="4.25" height="4.25"/><rect x="165.82" y="102.12" width="4.25" height="4.25"/><rect x="170.06" y="106.37" width="4.25" height="4.25"/><rect x="170.06" y="110.62" width="4.25" height="4.25"/><rect x="170.06" y="114.87" width="4.25" height="4.25"/><rect x="170.06" y="119.11" width="4.25" height="4.25"/><rect x="170.06" y="123.36" width="4.25" height="4.25"/><rect x="170.06" y="127.61" width="4.25" height="4.25"/><rect x="165.82" y="131.86" width="4.25" height="4.25"/><rect x="161.57" y="136.11" width="4.25" height="4.25"/><rect x="157.32" y="97.88" width="4.25" height="4.25"/><rect x="157.32" y="102.12" width="4.25" height="4.25"/><rect x="157.32" y="106.37" width="4.25" height="4.25"/><rect x="157.32" y="110.62" width="4.25" height="4.25"/><rect x="157.32" y="114.87" width="4.25" height="4.25"/><rect x="157.32" y="119.11" width="4.25" height="4.25"/><rect x="157.32" y="89.38" width="4.25" height="4.25"/><rect x="157.32" y="85.13" width="4.25" height="4.25"/><rect x="157.32" y="80.89" width="4.25" height="4.25"/><rect x="157.32" y="76.64" width="4.25" height="4.25"/><rect x="157.32" y="72.39" width="4.25" height="4.25"/><rect x="157.32" y="68.14" width="4.25" height="4.25"/><rect x="157.32" y="148.85" width="4.25" height="4.25"/><rect x="157.32" y="153.1" width="4.25" height="4.25"/><rect x="157.32" y="157.34" width="4.25" height="4.25"/><rect x="157.32" y="161.59" width="4.25" height="4.25"/><rect x="157.32" y="165.84" width="4.25" height="4.25"/><rect x="157.32" y="170.09" width="4.25" height="4.25"/><rect x="157.32" y="144.6" width="4.25" height="4.25"/><rect x="157.32" y="140.35" width="4.25" height="4.25"/><rect x="157.32" y="136.11" width="4.25" height="4.25"/><rect x="157.32" y="131.86" width="4.25" height="4.25"/><rect x="157.32" y="127.61" width="4.25" height="4.25"/><rect x="157.32" y="123.36" width="4.25" height="4.25"/><rect x="8.65" y="119.11" width="4.25" height="4.25"/><rect x="8.65" y="123.36" width="4.25" height="4.25"/><rect x="8.65" y="127.61" width="4.25" height="4.25"/><rect x="8.65" y="131.86" width="4.25" height="4.25"/><rect x="8.65" y="136.1" width="4.25" height="4.25"/><rect x="8.65" y="140.35" width="4.25" height="4.25"/><rect x="8.65" y="144.6" width="4.25" height="4.25"/><rect x="8.65" y="114.87" width="4.25" height="4.25"/><rect x="8.65" y="110.62" width="4.25" height="4.25"/><rect x="8.65" y="106.37" width="4.25" height="4.25"/><rect x="8.65" y="102.12" width="4.25" height="4.25"/><rect x="8.65" y="97.88" width="4.25" height="4.25"/><rect x="8.65" y="93.63" width="4.25" height="4.25"/><rect x="8.65" y="174.33" width="4.25" height="4.25"/><rect x="8.65" y="178.58" width="4.25" height="4.25"/><rect x="8.65" y="182.83" width="4.25" height="4.25"/><rect x="8.65" y="187.08" width="4.25" height="4.25"/><rect x="8.65" y="191.32" width="4.25" height="4.25"/><rect x="8.65" y="195.57" width="4.25" height="4.25"/><rect x="8.65" y="199.82" width="4.25" height="4.25"/><rect x="8.65" y="170.09" width="4.25" height="4.25"/><rect x="8.65" y="165.84" width="4.25" height="4.25"/><rect x="8.65" y="161.59" width="4.25" height="4.25"/><rect x="8.65" y="157.34" width="4.25" height="4.25"/><rect x="8.65" y="153.1" width="4.25" height="4.25"/><rect x="12.9" y="174.33" width="4.25" height="4.25"/><rect x="12.9" y="178.58" width="4.25" height="4.25"/><rect x="12.9" y="182.83" width="4.25" height="4.25"/><rect x="12.9" y="187.08" width="4.25" height="4.25"/><rect x="12.9" y="170.09" width="4.25" height="4.25"/><rect x="12.9" y="165.84" width="4.25" height="4.25"/><rect x="12.9" y="161.59" width="4.25" height="4.25"/><rect x="12.9" y="157.34" width="4.25" height="4.25"/><rect x="12.9" y="153.1" width="4.25" height="4.25"/><rect x="12.9" y="148.85" width="4.25" height="4.25"/><rect x="12.9" y="144.6" width="4.25" height="4.25"/><rect x="17.15" y="174.33" width="4.25" height="4.25"/><rect x="17.15" y="178.58" width="4.25" height="4.25"/><rect x="17.15" y="182.83" width="4.25" height="4.25"/><rect x="17.15" y="187.08" width="4.25" height="4.25"/><rect x="17.15" y="191.32" width="4.25" height="4.25"/><rect x="17.15" y="170.09" width="4.25" height="4.25"/><rect x="17.15" y="165.84" width="4.25" height="4.25"/><rect x="17.15" y="161.59" width="4.25" height="4.25"/><rect x="17.15" y="157.34" width="4.25" height="4.25"/><rect x="21.4" y="174.33" width="4.25" height="4.25"/><rect x="21.4" y="178.58" width="4.25" height="4.25"/><rect x="21.4" y="182.83" width="4.25" height="4.25"/><rect x="21.4" y="187.08" width="4.25" height="4.25"/><rect x="21.4" y="191.32" width="4.25" height="4.25"/><rect x="21.4" y="170.09" width="4.25" height="4.25"/><rect x="21.4" y="165.84" width="4.25" height="4.25"/><rect x="21.4" y="161.59" width="4.25" height="4.25"/><rect x="25.64" y="174.33" width="4.25" height="4.25"/><rect x="25.64" y="178.58" width="4.25" height="4.25"/><rect x="25.64" y="182.83" width="4.25" height="4.25"/><rect x="25.64" y="187.08" width="4.25" height="4.25"/><rect x="25.64" y="191.32" width="4.25" height="4.25"/><rect x="25.64" y="170.09" width="4.25" height="4.25"/><rect x="29.89" y="174.33" width="4.25" height="4.25"/><rect x="29.89" y="178.58" width="4.25" height="4.25"/><rect x="29.89" y="182.83" width="4.25" height="4.25"/><rect x="29.89" y="187.08" width="4.25" height="4.25"/><rect x="29.89" y="191.32" width="4.25" height="4.25"/><rect x="25.64" y="195.57" width="4.25" height="4.25"/><rect x="29.89" y="195.57" width="4.25" height="4.25"/><rect x="34.14" y="174.33" width="4.25" height="4.25"/><rect x="34.14" y="144.6" width="4.25" height="4.25"/><rect x="38.39" y="144.6" width="4.25" height="4.25"/><rect x="38.39" y="148.85" width="4.25" height="4.25"/><rect x="42.63" y="148.85" width="4.25" height="4.25"/><rect x="42.63" y="153.1" width="4.25" height="4.25"/><rect x="46.88" y="153.1" width="4.25" height="4.25"/><rect x="34.14" y="178.58" width="4.25" height="4.25"/><rect x="34.14" y="182.83" width="4.25" height="4.25"/><rect x="34.14" y="187.08" width="4.25" height="4.25"/><rect x="34.14" y="191.32" width="4.25" height="4.25"/><rect x="46.88" y="178.58" width="4.25" height="4.25"/><rect x="46.88" y="182.83" width="4.25" height="4.25"/><rect x="42.63" y="182.83" width="4.25" height="4.25"/><rect x="42.63" y="187.08" width="4.25" height="4.25"/><rect x="38.39" y="187.08" width="4.25" height="4.25"/><rect x="46.88" y="157.34" width="4.25" height="4.25"/><rect x="46.88" y="161.59" width="4.25" height="4.25"/><rect x="51.13" y="165.84" width="4.25" height="4.25"/><rect x="51.13" y="170.09" width="4.25" height="4.25"/><rect x="51.13" y="174.33" width="4.25" height="4.25"/><rect x="29.89" y="170.09" width="4.25" height="4.25"/><rect x="25.64" y="165.84" width="4.25" height="4.25"/><rect x="25.64" y="161.59" width="4.25" height="4.25"/><rect x="21.4" y="157.34" width="4.25" height="4.25"/><rect x="17.15" y="153.1" width="4.25" height="4.25"/><rect x="4.41" y="174.33" width="4.25" height="4.25"/><rect x="4.41" y="178.58" width="4.25" height="4.25"/><rect x="4.41" y="170.09" width="4.25" height="4.25"/><rect x="4.41" y="165.84" width="4.25" height="4.25"/><rect x="4.41" y="161.59" width="4.25" height="4.25"/><rect x="4.41" y="157.34" width="4.25" height="4.25"/><rect x="21.4" y="140.35" width="4.25" height="4.25"/><rect x="25.64" y="140.35" width="4.25" height="4.25"/><rect x="29.89" y="140.35" width="4.25" height="4.25"/><rect x="34.14" y="140.35" width="4.25" height="4.25"/><rect x="17.15" y="140.35" width="4.25" height="4.25"/><rect x="4.41" y="153.1" width="4.25" height="4.25"/><rect x="4.41" y="148.85" width="4.25" height="4.25"/><rect x=".16" y="170.09" width="4.25" height="4.25"/><rect x=".16" y="165.84" width="4.25" height="4.25"/><rect x=".16" y="161.59" width="4.25" height="4.25"/><rect x=".16" y="157.34" width="4.25" height="4.25"/><rect x=".16" y="153.1" width="4.25" height="4.25"/><rect x="8.65" y="148.85" width="4.25" height="4.25"/><rect x="63.87" y="68.14" width="4.25" height="4.25"/><rect x="68.12" y="68.14" width="4.25" height="4.25"/><rect x="72.37" y="68.14" width="4.25" height="4.25"/><rect x="76.62" y="68.14" width="4.25" height="4.25"/><rect x="59.63" y="63.9" width="4.25" height="4.25"/><rect x="63.87" y="63.9" width="4.25" height="4.25"/><rect x="68.12" y="63.9" width="4.25" height="4.25"/><rect x="72.37" y="63.9" width="4.25" height="4.25"/><rect x="76.62" y="63.9" width="4.25" height="4.25"/><rect x="68.12" y="59.65" width="4.25" height="4.25"/><rect x="42.63" y="72.39" width="4.25" height="4.25"/><rect x="63.87" y="59.65" width="4.25" height="4.25"/><rect x="72.37" y="59.65" width="4.25" height="4.25"/><rect x="76.62" y="59.65" width="4.25" height="4.25"/><rect x="72.37" y="55.4" width="4.25" height="4.25"/><rect x="76.62" y="55.4" width="4.25" height="4.25"/><rect x="85.11" y="38.41" width="4.25" height="4.25"/><rect x="76.62" y="38.41" width="4.25" height="4.25"/><rect x="89.36" y="38.41" width="4.25" height="4.25"/><rect x="80.86" y="38.41" width="4.25" height="4.25"/><rect x="63.87" y="17.17" width="4.25" height="4.25"/><rect x="63.87" y="12.92" width="4.25" height="4.25"/><rect x="63.87" y="21.42" width="4.25" height="4.25"/><rect x="63.87" y="25.67" width="4.25" height="4.25"/><rect class="cls-3" x="68.12" y="17.17" width="4.25" height="4.25"/><rect class="cls-3" x="68.12" y="12.92" width="4.25" height="4.25"/><rect class="cls-3" x="68.12" y="21.42" width="4.25" height="4.25"/><rect class="cls-3" x="68.12" y="25.67" width="4.25" height="4.25"/><rect class="cls-3" x="72.37" y="17.17" width="4.25" height="4.25"/><rect class="cls-3" x="72.37" y="12.92" width="4.25" height="4.25"/><rect class="cls-3" x="72.37" y="21.42" width="4.25" height="4.25"/><rect class="cls-3" x="72.37" y="25.67" width="4.25" height="4.25"/><rect class="cls-3" x="76.62" y="17.17" width="4.25" height="4.25"/><rect class="cls-3" x="76.62" y="12.92" width="4.25" height="4.25"/><rect class="cls-3" x="76.62" y="21.42" width="4.25" height="4.25"/><rect class="cls-3" x="76.62" y="25.67" width="4.25" height="4.25"/><rect class="cls-3" x="80.86" y="17.17" width="4.25" height="4.25"/><rect class="cls-3" x="80.86" y="12.92" width="4.25" height="4.25"/><rect class="cls-3" x="80.86" y="21.42" width="4.25" height="4.25"/><rect class="cls-3" x="80.86" y="25.67" width="4.25" height="4.25"/><rect class="cls-3" x="85.11" y="17.17" width="4.25" height="4.25"/><rect class="cls-3" x="85.11" y="12.92" width="4.25" height="4.25"/><rect class="cls-3" x="85.11" y="21.42" width="4.25" height="4.25"/><rect class="cls-3" x="85.11" y="25.67" width="4.25" height="4.25"/><rect class="cls-3" x="89.36" y="17.17" width="4.25" height="4.25"/><rect class="cls-3" x="89.36" y="12.92" width="4.25" height="4.25"/><rect class="cls-3" x="89.36" y="21.42" width="4.25" height="4.25"/><rect class="cls-3" x="89.36" y="25.67" width="4.25" height="4.25"/><rect class="cls-3" x="93.61" y="17.17" width="4.25" height="4.25"/><rect class="cls-3" x="93.61" y="12.92" width="4.25" height="4.25"/><rect class="cls-3" x="72.37" y="8.68" width="4.25" height="4.25"/><rect class="cls-3" x="76.62" y="8.68" width="4.25" height="4.25"/><rect class="cls-3" x="80.86" y="8.68" width="4.25" height="4.25"/><rect class="cls-3" x="85.11" y="8.68" width="4.25" height="4.25"/><rect class="cls-3" x="89.36" y="8.68" width="4.25" height="4.25"/><rect class="cls-3" x="93.61" y="8.68" width="4.25" height="4.25"/><rect class="cls-3" x="93.61" y="21.42" width="4.25" height="4.25"/><rect class="cls-3" x="93.61" y="25.67" width="4.25" height="4.25"/><rect class="cls-3" x="72.37" y="29.91" width="4.25" height="4.25"/><rect class="cls-3" x="76.62" y="29.91" width="4.25" height="4.25"/><rect class="cls-3" x="80.86" y="29.91" width="4.25" height="4.25"/><rect class="cls-3" x="85.11" y="29.91" width="4.25" height="4.25"/><rect class="cls-3" x="89.36" y="29.91" width="4.25" height="4.25"/><rect class="cls-3" x="76.62" y="34.16" width="4.25" height="4.25"/><rect class="cls-3" x="80.86" y="34.16" width="4.25" height="4.25"/><rect class="cls-3" x="85.11" y="34.16" width="4.25" height="4.25"/><rect class="cls-3" x="89.36" y="34.16" width="4.25" height="4.25"/><rect class="cls-3" x="76.62" y="4.43" width="4.25" height="4.25"/><rect class="cls-3" x="80.86" y="4.43" width="4.25" height="4.25"/><rect class="cls-3" x="85.11" y="4.43" width="4.25" height="4.25"/><rect class="cls-3" x="89.36" y="4.43" width="4.25" height="4.25"/><rect class="cls-3" x="93.61" y="29.91" width="4.25" height="4.25"/><rect class="cls-3" x="97.85" y="17.17" width="4.25" height="4.25"/><rect class="cls-3" x="97.85" y="12.92" width="4.25" height="4.25"/><rect class="cls-3" x="97.85" y="21.42" width="4.25" height="4.25"/><rect class="cls-3" x="97.85" y="25.67" width="4.25" height="4.25"/><rect x="80.86" y=".18" width="4.25" height="4.25" transform="translate(80.68 85.29) rotate(-90)"/><rect x="76.62" y=".18" width="4.25" height="4.25" transform="translate(76.43 81.04) rotate(-90)"/><rect x="85.11" y=".18" width="4.25" height="4.25" transform="translate(84.93 89.54) rotate(-90)"/><rect x="89.36" y=".18" width="4.25" height="4.25" transform="translate(89.18 93.79) rotate(-90)"/><rect x="68.12" y="29.91" width="4.25" height="4.25"/><rect x="72.37" y="34.16" width="4.25" height="4.25"/><rect x="72.37" y="4.43" width="4.25" height="4.25" transform="translate(148.98 13.1) rotate(180)"/><rect x="68.12" y="8.68" width="4.25" height="4.25" transform="translate(140.49 21.6) rotate(180)"/><rect x="102.1" y="17.17" width="4.25" height="4.25" transform="translate(208.45 38.59) rotate(180)"/><rect x="102.1" y="12.92" width="4.25" height="4.25" transform="translate(208.45 30.09) rotate(180)"/><rect x="102.1" y="21.42" width="4.25" height="4.25" transform="translate(208.45 47.09) rotate(180)"/><rect x="102.1" y="25.67" width="4.25" height="4.25" transform="translate(208.45 55.58) rotate(180)"/><rect x="97.85" y="29.91" width="4.25" height="4.25" transform="translate(199.96 64.08) rotate(180)"/><rect x="93.61" y="34.16" width="4.25" height="4.25" transform="translate(191.46 72.57) rotate(180)"/><rect x="93.61" y="4.43" width="4.25" height="4.25"/><rect x="97.85" y="8.68" width="4.25" height="4.25"/><rect x="93.61" y="34.16" width="4.25" height="4.25"/><rect x="80.86" y="80.89" width="4.25" height="4.25"/><rect x="85.11" y="80.89" width="4.25" height="4.25"/><rect x="89.36" y="80.89" width="4.25" height="4.25"/><rect x="93.61" y="80.89" width="4.25" height="4.25"/><rect x="97.85" y="80.89" width="4.25" height="4.25"/><rect x="102.1" y="80.89" width="4.25" height="4.25"/><rect x="106.35" y="80.89" width="4.25" height="4.25"/><rect x="110.6" y="80.89" width="4.25" height="4.25"/><rect x="114.84" y="80.89" width="4.25" height="4.25"/><rect x="119.09" y="80.89" width="4.25" height="4.25"/><rect x="89.36" y="76.64" width="4.25" height="4.25"/><rect x="93.61" y="76.64" width="4.25" height="4.25"/><rect x="97.85" y="76.64" width="4.25" height="4.25"/><rect x="102.1" y="76.64" width="4.25" height="4.25"/><rect x="106.35" y="76.64" width="4.25" height="4.25"/><rect x="110.6" y="76.64" width="4.25" height="4.25"/><rect x="114.84" y="76.64" width="4.25" height="4.25"/><rect x="119.09" y="76.64" width="4.25" height="4.25"/><rect x="89.36" y="72.39" width="4.25" height="4.25"/><rect x="93.61" y="72.39" width="4.25" height="4.25"/><rect x="97.85" y="72.39" width="4.25" height="4.25"/><rect x="102.1" y="72.39" width="4.25" height="4.25"/><rect x="106.35" y="72.39" width="4.25" height="4.25"/><rect x="110.6" y="72.39" width="4.25" height="4.25"/><rect x="114.84" y="72.39" width="4.25" height="4.25"/><rect x="119.09" y="72.39" width="4.25" height="4.25"/><rect x="89.36" y="68.14" width="4.25" height="4.25"/><rect x="93.61" y="68.14" width="4.25" height="4.25"/><rect x="97.85" y="68.14" width="4.25" height="4.25"/><rect x="102.1" y="68.14" width="4.25" height="4.25"/><rect x="106.35" y="68.14" width="4.25" height="4.25"/><rect x="110.6" y="68.14" width="4.25" height="4.25"/><rect x="114.84" y="68.14" width="4.25" height="4.25"/><rect x="119.09" y="68.14" width="4.25" height="4.25"/><rect x="89.36" y="63.9" width="4.25" height="4.25"/><rect x="93.61" y="63.9" width="4.25" height="4.25"/><rect x="97.85" y="63.9" width="4.25" height="4.25"/><rect x="102.1" y="63.9" width="4.25" height="4.25"/><rect x="106.35" y="63.9" width="4.25" height="4.25"/><rect x="110.6" y="63.9" width="4.25" height="4.25"/><rect x="114.84" y="63.9" width="4.25" height="4.25"/><rect x="119.09" y="63.9" width="4.25" height="4.25"/><rect x="89.36" y="59.65" width="4.25" height="4.25"/><rect x="93.61" y="59.65" width="4.25" height="4.25"/><rect x="97.85" y="59.65" width="4.25" height="4.25"/><rect x="102.1" y="59.65" width="4.25" height="4.25"/><rect x="106.35" y="59.65" width="4.25" height="4.25"/><rect x="110.6" y="59.65" width="4.25" height="4.25"/><rect x="114.84" y="59.65" width="4.25" height="4.25"/><rect x="119.09" y="59.65" width="4.25" height="4.25"/><rect x="89.36" y="55.4" width="4.25" height="4.25"/><rect x="93.61" y="55.4" width="4.25" height="4.25"/><rect x="97.85" y="55.4" width="4.25" height="4.25"/><rect x="102.1" y="55.4" width="4.25" height="4.25"/><rect x="106.35" y="55.4" width="4.25" height="4.25"/><rect x="110.6" y="55.4" width="4.25" height="4.25"/><rect x="114.84" y="55.4" width="4.25" height="4.25"/><rect x="119.09" y="55.4" width="4.25" height="4.25"/><rect x="89.36" y="51.15" width="4.25" height="4.25"/><rect x="93.61" y="51.15" width="4.25" height="4.25"/><rect x="97.85" y="51.15" width="4.25" height="4.25"/><rect x="102.1" y="51.15" width="4.25" height="4.25"/><rect x="106.35" y="51.15" width="4.25" height="4.25"/><rect x="110.6" y="51.15" width="4.25" height="4.25"/><rect x="114.84" y="51.15" width="4.25" height="4.25"/><rect x="119.09" y="51.15" width="4.25" height="4.25"/><rect x="89.36" y="46.9" width="4.25" height="4.25"/><rect x="93.61" y="46.9" width="4.25" height="4.25"/><rect x="89.36" y="42.66" width="4.25" height="4.25"/><rect class="cls-1" x="85.11" y="76.64" width="4.25" height="4.25"/><rect class="cls-1" x="80.86" y="76.64" width="4.25" height="4.25"/><rect class="cls-1" x="85.11" y="72.39" width="4.25" height="4.25"/><rect class="cls-1" x="80.86" y="72.39" width="4.25" height="4.25"/><rect class="cls-1" x="85.11" y="68.14" width="4.25" height="4.25"/><rect class="cls-1" x="80.86" y="68.14" width="4.25" height="4.25"/><rect class="cls-1" x="85.11" y="63.9" width="4.25" height="4.25"/><rect class="cls-1" x="80.86" y="63.9" width="4.25" height="4.25"/><rect class="cls-1" x="85.11" y="59.65" width="4.25" height="4.25"/><rect class="cls-1" x="80.86" y="59.65" width="4.25" height="4.25"/><rect class="cls-1" x="85.11" y="55.4" width="4.25" height="4.25"/><rect class="cls-1" x="80.86" y="55.4" width="4.25" height="4.25"/><rect class="cls-1" x="85.11" y="51.15" width="4.25" height="4.25"/><rect class="cls-1" x="80.86" y="51.15" width="4.25" height="4.25"/><rect class="cls-1" x="85.11" y="46.9" width="4.25" height="4.25"/><rect class="cls-1" x="80.86" y="46.9" width="4.25" height="4.25"/><rect class="cls-1" x="85.11" y="42.66" width="4.25" height="4.25"/><rect class="cls-1" x="80.86" y="42.66" width="4.25" height="4.25"/><rect x="76.62" y="51.15" width="4.25" height="4.25"/><rect x="76.62" y="46.9" width="4.25" height="4.25"/><rect x="76.62" y="42.66" width="4.25" height="4.25"/><rect x="97.85" y="46.9" width="4.25" height="4.25"/><rect x="102.1" y="46.9" width="4.25" height="4.25"/><rect x="106.35" y="46.9" width="4.25" height="4.25"/><rect x="110.6" y="46.9" width="4.25" height="4.25"/><rect x="114.84" y="46.9" width="4.25" height="4.25"/><rect x="119.09" y="46.9" width="4.25" height="4.25"/><rect x="123.34" y="85.13" width="4.25" height="4.25"/><rect x="123.34" y="80.89" width="4.25" height="4.25"/><rect x="123.34" y="76.64" width="4.25" height="4.25"/><rect x="123.34" y="72.39" width="4.25" height="4.25"/><rect x="123.34" y="68.14" width="4.25" height="4.25"/><rect x="123.34" y="63.9" width="4.25" height="4.25"/><rect x="123.34" y="59.65" width="4.25" height="4.25"/><rect x="123.34" y="55.4" width="4.25" height="4.25"/><rect x="123.34" y="51.15" width="4.25" height="4.25"/><rect x="123.34" y="46.9" width="4.25" height="4.25"/><rect x="127.59" y="80.89" width="4.25" height="4.25"/><rect x="127.59" y="76.64" width="4.25" height="4.25"/><rect x="127.59" y="72.39" width="4.25" height="4.25"/><rect x="127.59" y="68.14" width="4.25" height="4.25"/><rect x="127.59" y="63.9" width="4.25" height="4.25"/><rect x="127.59" y="59.65" width="4.25" height="4.25"/><rect x="127.59" y="55.4" width="4.25" height="4.25"/><rect x="127.59" y="51.15" width="4.25" height="4.25"/><rect x="131.84" y="76.64" width="4.25" height="4.25"/><rect x="131.84" y="72.39" width="4.25" height="4.25"/><rect x="131.84" y="68.14" width="4.25" height="4.25"/><rect x="131.84" y="63.9" width="4.25" height="4.25"/><rect x="131.84" y="59.65" width="4.25" height="4.25"/><rect x="131.84" y="55.4" width="4.25" height="4.25"/><rect x="131.84" y="51.15" width="4.25" height="4.25"/><rect x="136.08" y="76.64" width="4.25" height="4.25"/><rect x="136.08" y="72.39" width="4.25" height="4.25"/><rect x="136.08" y="68.14" width="4.25" height="4.25"/><rect x="136.08" y="63.9" width="4.25" height="4.25"/><rect x="136.08" y="59.65" width="4.25" height="4.25"/><rect x="136.08" y="55.4" width="4.25" height="4.25"/><rect x="140.33" y="72.39" width="4.25" height="4.25"/><rect x="140.33" y="68.14" width="4.25" height="4.25"/><rect x="140.33" y="63.9" width="4.25" height="4.25"/><rect x="140.33" y="59.65" width="4.25" height="4.25"/><rect x="140.33" y="55.4" width="4.25" height="4.25"/><rect x="144.58" y="72.39" width="4.25" height="4.25"/><rect x="144.58" y="68.14" width="4.25" height="4.25"/><rect x="144.58" y="63.9" width="4.25" height="4.25"/><rect x="144.58" y="59.65" width="4.25" height="4.25"/><rect x="148.83" y="68.14" width="4.25" height="4.25"/><rect x="148.83" y="63.9" width="4.25" height="4.25"/><rect x="153.07" y="63.9" width="4.25" height="4.25"/><rect x="153.07" y="59.65" width="4.25" height="4.25"/><rect x="157.32" y="63.9" width="4.25" height="4.25"/><rect x="148.83" y="59.65" width="4.25" height="4.25"/><rect x="144.58" y="55.4" width="4.25" height="4.25"/><rect x="136.08" y="51.15" width="4.25" height="4.25"/><rect x="127.59" y="46.9" width="4.25" height="4.25"/><rect x="97.85" y="42.66" width="4.25" height="4.25"/><rect x="102.1" y="42.66" width="4.25" height="4.25"/><rect x="106.35" y="42.66" width="4.25" height="4.25"/><rect x="110.6" y="42.66" width="4.25" height="4.25"/><rect x="114.84" y="42.66" width="4.25" height="4.25"/><rect x="102.1" y="38.41" width="4.25" height="4.25"/><rect x="106.35" y="38.41" width="4.25" height="4.25"/><rect x="110.6" y="38.41" width="4.25" height="4.25"/><rect x="106.35" y="34.16" width="4.25" height="4.25"/><rect x="110.6" y="34.16" width="4.25" height="4.25"/><rect x="114.84" y="38.41" width="4.25" height="4.25"/><rect x="119.09" y="42.66" width="4.25" height="4.25"/><rect x="123.34" y="42.66" width="4.25" height="4.25"/><rect x="12.9" y="204.07" width="4.25" height="4.25"/><rect x="17.15" y="208.31" width="4.25" height="4.25"/><rect x="21.4" y="208.31" width="4.25" height="4.25"/><rect x="25.64" y="212.56" width="4.25" height="4.25"/><rect x="29.89" y="212.56" width="4.25" height="4.25"/><rect x="34.14" y="216.81" width="4.25" height="4.25"/><rect x="38.39" y="221.06" width="4.25" height="4.25"/><rect x="42.63" y="221.06" width="4.25" height="4.25"/><rect x="46.88" y="225.31" width="4.25" height="4.25"/><rect x="51.13" y="225.31" width="4.25" height="4.25"/><rect x="55.38" y="229.55" width="4.25" height="4.25"/><rect x="63.87" y="229.55" width="4.25" height="4.25"/><rect x="68.12" y="225.31" width="4.25" height="4.25"/><rect x="72.37" y="225.31" width="4.25" height="4.25"/><rect x="76.62" y="221.06" width="4.25" height="4.25"/><rect x="80.86" y="221.06" width="4.25" height="4.25"/><rect x="85.11" y="216.81" width="4.25" height="4.25"/><rect x="89.36" y="212.56" width="4.25" height="4.25"/><rect x="93.61" y="212.56" width="4.25" height="4.25"/><rect x="97.85" y="208.31" width="4.25" height="4.25"/><rect x="102.1" y="208.31" width="4.25" height="4.25"/><rect x="114.84" y="199.82" width="4.25" height="4.25"/><rect x="119.09" y="195.57" width="4.25" height="4.25"/><rect x="106.35" y="204.07" width="4.25" height="4.25"/><rect x="110.6" y="199.82" width="4.25" height="4.25"/><rect x="123.34" y="195.57" width="4.25" height="4.25"/><rect x="127.59" y="191.32" width="4.25" height="4.25"/><rect x="131.84" y="187.08" width="4.25" height="4.25"/><rect x="136.08" y="187.08" width="4.25" height="4.25"/><rect x="93.61" y="191.32" width="4.25" height="4.25"/><rect x="89.36" y="187.08" width="4.25" height="4.25"/><rect x="89.36" y="182.83" width="4.25" height="4.25"/><rect x="97.85" y="187.08" width="4.25" height="4.25"/><rect x="102.1" y="187.08" width="4.25" height="4.25"/><rect x="114.84" y="178.58" width="4.25" height="4.25"/><rect x="119.09" y="174.33" width="4.25" height="4.25"/><rect x="106.35" y="182.83" width="4.25" height="4.25"/><rect x="110.6" y="178.58" width="4.25" height="4.25"/><rect x="123.34" y="174.33" width="4.25" height="4.25"/><rect x="127.59" y="170.09" width="4.25" height="4.25"/><rect x="131.84" y="165.84" width="4.25" height="4.25"/><rect x="136.08" y="165.84" width="4.25" height="4.25"/><rect x="93.61" y="178.58" width="4.25" height="4.25"/><rect x="97.85" y="174.33" width="4.25" height="4.25"/><rect x="102.1" y="174.33" width="4.25" height="4.25"/><rect x="114.84" y="165.84" width="4.25" height="4.25"/><rect x="119.09" y="161.59" width="4.25" height="4.25"/><rect x="106.35" y="170.09" width="4.25" height="4.25"/><rect x="110.6" y="165.84" width="4.25" height="4.25"/><rect x="123.34" y="161.59" width="4.25" height="4.25"/><rect x="127.59" y="157.34" width="4.25" height="4.25"/><rect x="131.84" y="153.1" width="4.25" height="4.25"/><rect x="136.08" y="153.1" width="4.25" height="4.25"/><rect x="140.33" y="161.59" width="4.25" height="4.25"/><rect x="140.33" y="157.34" width="4.25" height="4.25"/><rect x="140.33" y="182.83" width="4.25" height="4.25"/><rect x="144.58" y="182.83" width="4.25" height="4.25"/><rect x="148.83" y="178.58" width="4.25" height="4.25"/><rect x="153.07" y="174.33" width="4.25" height="4.25"/></svg>