<?xml version="1.0" encoding="UTF-8"?><svg id="Layer_2" xmlns="http://www.w3.org/2000/svg" viewBox="0 0 143.99 144.43"><defs><style>.cls-1{fill:#ff552e;}.cls-2{fill:#e6e4e3;}</style></defs><rect x="12.18" y="78.2" width="5.98" height="5.98"/><rect class="cls-2" x="12.18" y="84.18" width="5.98" height="5.98"/><rect class="cls-2" x="12.18" y="90.16" width="5.98" height="5.98"/><rect x="12.18" y="96.14" width="5.98" height="5.98"/><rect x="12.18" y="102.12" width="5.98" height="5.98"/><rect class="cls-2" x="12.18" y="108.1" width="5.98" height="5.98"/><rect class="cls-2" x="12.18" y="114.08" width="5.98" height="5.98"/><rect x="12.18" y="120.06" width="5.98" height="5.98"/><rect x="6.2" y="84.18" width="5.98" height="5.98"/><rect class="cls-2" x="6.2" y="90.16" width="5.98" height="5.98"/><rect class="cls-2" x="6.2" y="96.14" width="5.98" height="5.98"/><rect class="cls-2" x="6.2" y="102.12" width="5.98" height="5.98"/><rect class="cls-2" x="6.2" y="108.1" width="5.98" height="5.98"/><rect x="6.2" y="114.08" width="5.98" height="5.98"/><rect x=".22" y="90.16" width="5.98" height="5.98"/><rect x=".22" y="96.14" width="5.98" height="5.98"/><rect x=".22" y="102.12" width="5.98" height="5.98"/><rect x=".22" y="108.1" width="5.98" height="5.98"/><rect x="30.13" y="54.27" width="5.98" height="5.98"/><rect x="30.13" y="60.25" width="5.98" height="5.98"/><rect class="cls-2" x="30.13" y="66.23" width="5.98" height="5.98"/><rect class="cls-2" x="30.13" y="72.22" width="5.98" height="5.98"/><rect x="30.13" y="78.2" width="5.98" height="5.98"/><rect x="30.13" y="120.06" width="5.98" height="5.98"/><rect class="cls-1" x="30.13" y="126.05" width="5.98" height="5.98"/><rect class="cls-1" x="30.13" y="132.03" width="5.98" height="5.98"/><rect x="30.13" y="138.01" width="5.98" height="5.98"/><rect x="30.13" y="36.33" width="5.98" height="5.98"/><rect x="30.13" y="42.31" width="5.98" height="5.98"/><rect x="30.13" y="48.29" width="5.98" height="5.98"/><rect x="24.15" y="66.23" width="5.98" height="5.98"/><rect class="cls-2" x="24.15" y="72.22" width="5.98" height="5.98"/><rect class="cls-2" x="24.15" y="78.2" width="5.98" height="5.98"/><rect x="24.15" y="84.18" width="5.98" height="5.98"/><rect x="24.15" y="114.08" width="5.98" height="5.98"/><rect class="cls-2" x="24.15" y="120.06" width="5.98" height="5.98"/><rect x="24.15" y="126.05" width="5.98" height="5.98"/><rect x="24.15" y="132.03" width="5.98" height="5.98"/><rect x="24.15" y="42.31" width="5.98" height="5.98"/><rect x="24.15" y="48.29" width="5.98" height="5.98"/><rect x="18.16" y="72.22" width="5.98" height="5.98"/><rect class="cls-2" x="18.16" y="78.2" width="5.98" height="5.98"/><rect class="cls-2" x="18.16" y="84.18" width="5.98" height="5.98"/><rect x="18.16" y="90.16" width="5.98" height="5.98"/><rect x="18.16" y="108.1" width="5.98" height="5.98"/><rect class="cls-2" x="18.16" y="114.08" width="5.98" height="5.98"/><rect class="cls-2" x="18.16" y="120.06" width="5.98" height="5.98"/><rect x="18.16" y="126.05" width="5.98" height="5.98"/><rect class="cls-2" x="48.07" y="54.27" width="5.98" height="5.98"/><rect x="48.07" y="60.25" width="5.98" height="5.98"/><rect x="48.07" y="132.03" width="5.98" height="5.98"/><rect x="48.07" y="138.01" width="5.98" height="5.98"/><rect x="48.07" y="18.39" width="5.98" height="5.98"/><rect class="cls-2" x="48.07" y="24.37" width="5.98" height="5.98"/><rect class="cls-2" x="48.07" y="30.35" width="5.98" height="5.98"/><rect class="cls-2" x="48.07" y="36.33" width="5.98" height="5.98"/><rect class="cls-2" x="48.07" y="42.31" width="5.98" height="5.98"/><rect x="48.07" y="48.29" width="5.98" height="5.98"/><rect class="cls-2" x="42.09" y="54.27" width="5.98" height="5.98"/><rect x="42.09" y="60.25" width="5.98" height="5.98"/><rect x="42.09" y="66.23" width="5.98" height="5.98"/><rect x="42.09" y="126.05" width="5.98" height="5.98"/><rect class="cls-1" x="42.09" y="132.03" width="5.98" height="5.98"/><rect x="42.09" y="138.01" width="5.98" height="5.98"/><rect x="42.09" y="24.37" width="5.98" height="5.98"/><rect x="42.09" y="30.35" width="5.98" height="5.98"/><rect class="cls-2" x="42.09" y="36.33" width="5.98" height="5.98"/><rect class="cls-2" x="42.09" y="42.31" width="5.98" height="5.98"/><rect x="42.09" y="48.29" width="5.98" height="5.98"/><rect class="cls-2" x="36.11" y="54.27" width="5.98" height="5.98"/><rect x="36.11" y="60.25" width="5.98" height="5.98"/><rect class="cls-2" x="36.11" y="66.23" width="5.98" height="5.98"/><rect x="36.11" y="72.22" width="5.98" height="5.98"/><rect x="36.11" y="126.05" width="5.98" height="5.98"/><rect class="cls-1" x="36.11" y="132.03" width="5.98" height="5.98"/><rect x="36.11" y="138.01" width="5.98" height="5.98"/><rect x="36.11" y="30.35" width="5.98" height="5.98"/><rect x="36.11" y="36.33" width="5.98" height="5.98"/><rect class="cls-2" x="36.11" y="42.31" width="5.98" height="5.98"/><rect x="36.11" y="48.29" width="5.98" height="5.98"/><rect class="cls-2" x="66.01" y="54.27" width="5.98" height="5.98"/><rect x="66.01" y="60.25" width="5.98" height="5.98"/><rect class="cls-2" x="66.01" y=".44" width="5.98" height="5.98"/><rect class="cls-2" x="66.01" y="6.42" width="5.98" height="5.98"/><rect class="cls-2" x="66.01" y="12.41" width="5.98" height="5.98"/><rect x="66.01" y="18.39" width="5.98" height="5.98"/><rect class="cls-2" x="66.01" y="24.37" width="5.98" height="5.98"/><rect class="cls-2" x="66.01" y="30.35" width="5.98" height="5.98"/><rect class="cls-2" x="66.01" y="36.33" width="5.98" height="5.98"/><rect class="cls-2" x="66.01" y="42.31" width="5.98" height="5.98"/><rect x="66.01" y="48.29" width="5.98" height="5.98"/><rect class="cls-2" x="60.03" y="54.27" width="5.98" height="5.98"/><rect x="60.03" y="60.25" width="5.98" height="5.98"/><rect x="60.03" y=".44" width="5.98" height="5.98"/><rect x="60.03" y="6.42" width="5.98" height="5.98"/><rect x="60.03" y="12.41" width="5.98" height="5.98"/><rect x="60.03" y="18.39" width="5.98" height="5.98"/><rect class="cls-2" x="60.03" y="24.37" width="5.98" height="5.98"/><rect class="cls-2" x="60.03" y="30.35" width="5.98" height="5.98"/><rect class="cls-2" x="60.03" y="36.33" width="5.98" height="5.98"/><rect class="cls-2" x="60.03" y="42.31" width="5.98" height="5.98"/><rect x="60.03" y="48.29" width="5.98" height="5.98"/><rect class="cls-2" x="54.05" y="54.27" width="5.98" height="5.98"/><rect x="54.05" y="60.25" width="5.98" height="5.98"/><rect x="54.05" y="18.39" width="5.98" height="5.98"/><rect class="cls-2" x="54.05" y="24.37" width="5.98" height="5.98"/><rect class="cls-2" x="54.05" y="30.35" width="5.98" height="5.98"/><rect class="cls-2" x="54.05" y="36.33" width="5.98" height="5.98"/><rect class="cls-2" x="54.05" y="42.31" width="5.98" height="5.98"/><rect x="54.05" y="48.29" width="5.98" height="5.98"/><rect x="125.82" y="78.2" width="5.98" height="5.98" transform="translate(257.63 162.37) rotate(-180)"/><rect class="cls-2" x="125.82" y="84.18" width="5.98" height="5.98" transform="translate(257.63 174.34) rotate(-180)"/><rect class="cls-2" x="125.82" y="90.16" width="5.98" height="5.98" transform="translate(257.63 186.3) rotate(-180)"/><rect x="125.82" y="96.14" width="5.98" height="5.98" transform="translate(257.63 198.26) rotate(-180)"/><rect x="125.82" y="102.12" width="5.98" height="5.98" transform="translate(257.63 210.22) rotate(-180)"/><rect class="cls-2" x="125.82" y="108.1" width="5.98" height="5.98" transform="translate(257.63 222.19) rotate(-180)"/><rect class="cls-2" x="125.82" y="114.08" width="5.98" height="5.98" transform="translate(257.63 234.15) rotate(-180)"/><rect x="125.82" y="120.06" width="5.98" height="5.98" transform="translate(257.63 246.11) rotate(-180)"/><rect x="131.8" y="84.18" width="5.98" height="5.98" transform="translate(269.59 174.34) rotate(-180)"/><rect class="cls-2" x="131.8" y="90.16" width="5.98" height="5.98" transform="translate(269.59 186.3) rotate(-180)"/><rect class="cls-2" x="131.8" y="96.14" width="5.98" height="5.98" transform="translate(269.59 198.26) rotate(-180)"/><rect class="cls-2" x="131.8" y="102.12" width="5.98" height="5.98" transform="translate(269.59 210.22) rotate(-180)"/><rect class="cls-2" x="131.8" y="108.1" width="5.98" height="5.98" transform="translate(269.59 222.19) rotate(-180)"/><rect x="131.8" y="114.08" width="5.98" height="5.98" transform="translate(269.59 234.15) rotate(-180)"/><rect x="137.79" y="90.16" width="5.98" height="5.98" transform="translate(281.55 186.3) rotate(-180)"/><rect x="137.79" y="96.14" width="5.98" height="5.98" transform="translate(281.55 198.26) rotate(-180)"/><rect x="137.79" y="102.12" width="5.98" height="5.98" transform="translate(281.55 210.22) rotate(-180)"/><rect x="137.79" y="108.1" width="5.98" height="5.98" transform="translate(281.55 222.19) rotate(-180)"/><rect x="107.88" y="54.27" width="5.98" height="5.98" transform="translate(221.74 114.53) rotate(-180)"/><rect x="107.88" y="60.25" width="5.98" height="5.98" transform="translate(221.74 126.49) rotate(-180)"/><rect class="cls-2" x="107.88" y="66.23" width="5.98" height="5.98" transform="translate(221.74 138.45) rotate(-180)"/><rect class="cls-2" x="107.88" y="72.22" width="5.98" height="5.98" transform="translate(221.74 150.41) rotate(-180)"/><rect x="107.88" y="78.2" width="5.98" height="5.98" transform="translate(221.74 162.37) rotate(-180)"/><rect x="107.88" y="120.06" width="5.98" height="5.98" transform="translate(221.74 246.11) rotate(-180)"/><rect class="cls-1" x="107.88" y="126.05" width="5.98" height="5.98" transform="translate(221.74 258.07) rotate(-180)"/><rect class="cls-1" x="107.88" y="132.03" width="5.98" height="5.98" transform="translate(221.74 270.03) rotate(-180)"/><rect x="107.88" y="138.01" width="5.98" height="5.98" transform="translate(221.74 282) rotate(-180)"/><rect x="107.88" y="36.33" width="5.98" height="5.98" transform="translate(221.74 78.64) rotate(-180)"/><rect x="107.88" y="42.31" width="5.98" height="5.98" transform="translate(221.74 90.6) rotate(-180)"/><rect x="107.88" y="48.29" width="5.98" height="5.98" transform="translate(221.74 102.56) rotate(-180)"/><rect x="113.86" y="66.23" width="5.98" height="5.98" transform="translate(233.7 138.45) rotate(-180)"/><rect class="cls-2" x="113.86" y="72.22" width="5.98" height="5.98" transform="translate(233.7 150.41) rotate(-180)"/><rect class="cls-2" x="113.86" y="78.2" width="5.98" height="5.98" transform="translate(233.7 162.37) rotate(-180)"/><rect x="113.86" y="84.18" width="5.98" height="5.98" transform="translate(233.7 174.34) rotate(-180)"/><rect x="113.86" y="114.08" width="5.98" height="5.98" transform="translate(233.7 234.15) rotate(-180)"/><rect class="cls-2" x="113.86" y="120.06" width="5.98" height="5.98" transform="translate(233.7 246.11) rotate(-180)"/><rect x="113.86" y="126.05" width="5.98" height="5.98" transform="translate(233.7 258.07) rotate(-180)"/><rect x="113.86" y="132.03" width="5.98" height="5.98" transform="translate(233.7 270.03) rotate(-180)"/><rect x="113.86" y="42.31" width="5.98" height="5.98" transform="translate(233.7 90.6) rotate(-180)"/><rect x="113.86" y="48.29" width="5.98" height="5.98" transform="translate(233.7 102.56) rotate(-180)"/><rect x="119.84" y="72.22" width="5.98" height="5.98" transform="translate(245.67 150.41) rotate(-180)"/><rect class="cls-2" x="119.84" y="78.2" width="5.98" height="5.98" transform="translate(245.67 162.37) rotate(-180)"/><rect class="cls-2" x="119.84" y="84.18" width="5.98" height="5.98" transform="translate(245.67 174.34) rotate(-180)"/><rect x="119.84" y="90.16" width="5.98" height="5.98" transform="translate(245.67 186.3) rotate(-180)"/><rect x="119.84" y="108.1" width="5.98" height="5.98" transform="translate(245.67 222.19) rotate(-180)"/><rect class="cls-2" x="119.84" y="114.08" width="5.98" height="5.98" transform="translate(245.67 234.15) rotate(-180)"/><rect class="cls-2" x="119.84" y="120.06" width="5.98" height="5.98" transform="translate(245.67 246.11) rotate(-180)"/><rect x="119.84" y="126.05" width="5.98" height="5.98" transform="translate(245.67 258.07) rotate(-180)"/><rect class="cls-2" x="89.94" y="54.27" width="5.98" height="5.98" transform="translate(185.86 114.53) rotate(-180)"/><rect x="89.94" y="60.25" width="5.98" height="5.98" transform="translate(185.86 126.49) rotate(-180)"/><rect x="89.94" y="132.03" width="5.98" height="5.98" transform="translate(185.86 270.03) rotate(-180)"/><rect x="89.94" y="138.01" width="5.98" height="5.98" transform="translate(185.86 282) rotate(-180)"/><rect x="89.94" y="18.39" width="5.98" height="5.98" transform="translate(185.86 42.75) rotate(-180)"/><rect class="cls-2" x="89.94" y="24.37" width="5.98" height="5.98" transform="translate(185.86 54.72) rotate(-180)"/><rect class="cls-2" x="89.94" y="30.35" width="5.98" height="5.98" transform="translate(185.86 66.68) rotate(-180)"/><rect class="cls-2" x="89.94" y="36.33" width="5.98" height="5.98" transform="translate(185.86 78.64) rotate(-180)"/><rect class="cls-2" x="89.94" y="42.31" width="5.98" height="5.98" transform="translate(185.86 90.6) rotate(-180)"/><rect x="89.94" y="48.29" width="5.98" height="5.98" transform="translate(185.86 102.56) rotate(-180)"/><rect class="cls-2" x="95.92" y="54.27" width="5.98" height="5.98" transform="translate(197.82 114.53) rotate(-180)"/><rect x="95.92" y="60.25" width="5.98" height="5.98" transform="translate(197.82 126.49) rotate(-180)"/><rect x="95.92" y="66.23" width="5.98" height="5.98" transform="translate(197.82 138.45) rotate(-180)"/><rect x="95.92" y="126.05" width="5.98" height="5.98" transform="translate(197.82 258.07) rotate(-180)"/><rect class="cls-1" x="95.92" y="132.03" width="5.98" height="5.98" transform="translate(197.82 270.03) rotate(-180)"/><rect x="95.92" y="138.01" width="5.98" height="5.98" transform="translate(197.82 282) rotate(-180)"/><rect x="95.92" y="24.37" width="5.98" height="5.98" transform="translate(197.82 54.72) rotate(-180)"/><rect x="95.92" y="30.35" width="5.98" height="5.98" transform="translate(197.82 66.68) rotate(-180)"/><rect class="cls-2" x="95.92" y="36.33" width="5.98" height="5.98" transform="translate(197.82 78.64) rotate(-180)"/><rect class="cls-2" x="95.92" y="42.31" width="5.98" height="5.98" transform="translate(197.82 90.6) rotate(-180)"/><rect x="95.92" y="48.29" width="5.98" height="5.98" transform="translate(197.82 102.56) rotate(-180)"/><rect class="cls-2" x="101.9" y="54.27" width="5.98" height="5.98" transform="translate(209.78 114.53) rotate(-180)"/><rect x="101.9" y="60.25" width="5.98" height="5.98" transform="translate(209.78 126.49) rotate(-180)"/><rect class="cls-2" x="101.9" y="66.23" width="5.98" height="5.98" transform="translate(209.78 138.45) rotate(-180)"/><rect x="101.9" y="72.22" width="5.98" height="5.98" transform="translate(209.78 150.41) rotate(-180)"/><rect x="101.9" y="126.05" width="5.98" height="5.98" transform="translate(209.78 258.07) rotate(-180)"/><rect class="cls-1" x="101.9" y="132.03" width="5.98" height="5.98" transform="translate(209.78 270.03) rotate(-180)"/><rect x="101.9" y="138.01" width="5.98" height="5.98" transform="translate(209.78 282) rotate(-180)"/><rect x="101.9" y="30.35" width="5.98" height="5.98" transform="translate(209.78 66.68) rotate(-180)"/><rect x="101.9" y="36.33" width="5.98" height="5.98" transform="translate(209.78 78.64) rotate(-180)"/><rect class="cls-2" x="101.9" y="42.31" width="5.98" height="5.98" transform="translate(209.78 90.6) rotate(-180)"/><rect x="101.9" y="48.29" width="5.98" height="5.98" transform="translate(209.78 102.56) rotate(-180)"/><rect class="cls-2" x="71.99" y="54.27" width="5.98" height="5.98" transform="translate(149.97 114.53) rotate(-180)"/><rect x="71.99" y="60.25" width="5.98" height="5.98" transform="translate(149.97 126.49) rotate(-180)"/><rect class="cls-2" x="71.99" y=".44" width="5.98" height="5.98" transform="translate(149.97 6.87) rotate(-180)"/><rect class="cls-2" x="71.99" y="6.42" width="5.98" height="5.98" transform="translate(149.97 18.83) rotate(-180)"/><rect class="cls-2" x="71.99" y="12.41" width="5.98" height="5.98" transform="translate(149.97 30.79) rotate(-180)"/><rect x="71.99" y="18.39" width="5.98" height="5.98" transform="translate(149.97 42.75) rotate(-180)"/><rect class="cls-2" x="71.99" y="24.37" width="5.98" height="5.98" transform="translate(149.97 54.72) rotate(-180)"/><rect class="cls-2" x="71.99" y="30.35" width="5.98" height="5.98" transform="translate(149.97 66.68) rotate(-180)"/><rect class="cls-2" x="71.99" y="36.33" width="5.98" height="5.98" transform="translate(149.97 78.64) rotate(-180)"/><rect class="cls-2" x="71.99" y="42.31" width="5.98" height="5.98" transform="translate(149.97 90.6) rotate(-180)"/><rect x="71.99" y="48.29" width="5.98" height="5.98" transform="translate(149.97 102.56) rotate(-180)"/><rect class="cls-2" x="77.98" y="54.27" width="5.98" height="5.98" transform="translate(161.93 114.53) rotate(-180)"/><rect x="77.98" y="60.25" width="5.98" height="5.98" transform="translate(161.93 126.49) rotate(-180)"/><rect x="77.98" y=".44" width="5.98" height="5.98" transform="translate(161.93 6.87) rotate(-180)"/><rect x="77.98" y="6.42" width="5.98" height="5.98" transform="translate(161.93 18.83) rotate(-180)"/><rect x="77.98" y="12.41" width="5.98" height="5.98" transform="translate(161.93 30.79) rotate(-180)"/><rect x="77.98" y="18.39" width="5.98" height="5.98" transform="translate(161.93 42.75) rotate(-180)"/><rect class="cls-2" x="77.98" y="24.37" width="5.98" height="5.98" transform="translate(161.93 54.72) rotate(-180)"/><rect class="cls-2" x="77.98" y="30.35" width="5.98" height="5.98" transform="translate(161.93 66.68) rotate(-180)"/><rect class="cls-2" x="77.98" y="36.33" width="5.98" height="5.98" transform="translate(161.93 78.64) rotate(-180)"/><rect class="cls-2" x="77.98" y="42.31" width="5.98" height="5.98" transform="translate(161.93 90.6) rotate(-180)"/><rect x="77.98" y="48.29" width="5.98" height="5.98" transform="translate(161.93 102.56) rotate(-180)"/><rect class="cls-2" x="83.96" y="54.27" width="5.98" height="5.98" transform="translate(173.89 114.53) rotate(-180)"/><rect x="83.96" y="60.25" width="5.98" height="5.98" transform="translate(173.89 126.49) rotate(-180)"/><rect x="83.96" y="18.39" width="5.98" height="5.98" transform="translate(173.89 42.75) rotate(-180)"/><rect class="cls-2" x="83.96" y="24.37" width="5.98" height="5.98" transform="translate(173.89 54.72) rotate(-180)"/><rect class="cls-2" x="83.96" y="30.35" width="5.98" height="5.98" transform="translate(173.89 66.68) rotate(-180)"/><rect class="cls-2" x="83.96" y="36.33" width="5.98" height="5.98" transform="translate(173.89 78.64) rotate(-180)"/><rect class="cls-2" x="83.96" y="42.31" width="5.98" height="5.98" transform="translate(173.89 90.6) rotate(-180)"/><rect x="83.96" y="48.29" width="5.98" height="5.98" transform="translate(173.89 102.56) rotate(-180)"/></svg>