<?xml version="1.0" encoding="UTF-8"?><svg id="Layer_2" xmlns="http://www.w3.org/2000/svg" viewBox="0 0 114.75 146.63"><defs><style>.cls-1{fill:#f7d548;}.cls-2{fill:#e6e4e3;}</style></defs><rect x=".36" y="109.84" width="4.57" height="4.57"/><rect x=".36" y="105.27" width="4.57" height="4.57"/><rect x=".36" y="100.7" width="4.57" height="4.57"/><rect x=".36" y="96.14" width="4.57" height="4.57"/><rect x=".36" y="91.57" width="4.57" height="4.57"/><rect x="4.93" y="123.54" width="4.57" height="4.57"/><rect x="4.93" y="118.97" width="4.57" height="4.57"/><rect x="4.93" y="114.4" width="4.57" height="4.57"/><rect class="cls-2" x="4.93" y="109.84" width="4.57" height="4.57"/><rect class="cls-2" x="4.93" y="105.27" width="4.57" height="4.57"/><rect class="cls-2" x="4.93" y="100.7" width="4.57" height="4.57"/><rect class="cls-2" x="4.93" y="96.14" width="4.57" height="4.57"/><rect x="4.93" y="91.57" width="4.57" height="4.57"/><rect x="4.93" y="87" width="4.57" height="4.57"/><rect x="4.93" y="82.43" width="4.57" height="4.57"/><rect x="4.93" y="77.87" width="4.57" height="4.57"/><rect x="4.93" y="73.3" width="4.57" height="4.57"/><rect x="9.5" y="128.11" width="4.57" height="4.57"/><rect class="cls-2" x="9.5" y="123.54" width="4.57" height="4.57"/><rect x="9.5" y="118.97" width="4.57" height="4.57"/><rect class="cls-2" x="9.5" y="114.4" width="4.57" height="4.57"/><rect class="cls-2" x="9.5" y="109.84" width="4.57" height="4.57"/><rect class="cls-2" x="9.5" y="105.27" width="4.57" height="4.57"/><rect class="cls-2" x="9.5" y="100.7" width="4.57" height="4.57"/><rect class="cls-2" x="9.5" y="96.14" width="4.57" height="4.57"/><rect x="9.5" y="91.57" width="4.57" height="4.57"/><rect x="9.5" y="87" width="4.57" height="4.57"/><rect class="cls-2" x="9.5" y="82.43" width="4.57" height="4.57"/><rect class="cls-2" x="9.5" y="77.87" width="4.57" height="4.57"/><rect class="cls-2" x="9.5" y="73.3" width="4.57" height="4.57"/><rect x="14.07" y="128.11" width="4.57" height="4.57"/><rect class="cls-2" x="14.07" y="123.54" width="4.57" height="4.57"/><rect x="14.07" y="118.97" width="4.57" height="4.57"/><rect class="cls-2" x="14.07" y="114.4" width="4.57" height="4.57"/><rect class="cls-2" x="14.07" y="109.84" width="4.57" height="4.57"/><rect class="cls-2" x="14.07" y="105.27" width="4.57" height="4.57"/><rect class="cls-2" x="14.07" y="100.7" width="4.57" height="4.57"/><rect x="14.07" y="96.14" width="4.57" height="4.57"/><rect class="cls-2" x="14.07" y="91.57" width="4.57" height="4.57"/><rect x="14.07" y="87" width="4.57" height="4.57"/><rect class="cls-2" x="14.07" y="82.43" width="4.57" height="4.57"/><rect class="cls-2" x="14.07" y="77.87" width="4.57" height="4.57"/><rect class="cls-2" x="14.07" y="73.3" width="4.57" height="4.57"/><rect x="18.63" y="132.67" width="4.57" height="4.57"/><rect class="cls-2" x="18.63" y="128.11" width="4.57" height="4.57"/><rect class="cls-2" x="18.63" y="123.54" width="4.57" height="4.57"/><rect x="18.63" y="118.97" width="4.57" height="4.57"/><rect class="cls-2" x="18.63" y="114.4" width="4.57" height="4.57"/><rect class="cls-2" x="18.63" y="109.84" width="4.57" height="4.57"/><rect x="18.63" y="105.27" width="4.57" height="4.57"/><rect x="18.63" y="100.7" width="4.57" height="4.57"/><rect class="cls-2" x="18.63" y="96.14" width="4.57" height="4.57"/><rect class="cls-2" x="18.63" y="91.57" width="4.57" height="4.57"/><rect x="18.63" y="87" width="4.57" height="4.57"/><rect class="cls-2" x="18.63" y="82.43" width="4.57" height="4.57"/><rect class="cls-2" x="18.63" y="77.87" width="4.57" height="4.57"/><rect class="cls-2" x="18.63" y="73.3" width="4.57" height="4.57"/><rect x="23.2" y="132.67" width="4.57" height="4.57"/><rect class="cls-2" x="23.2" y="128.11" width="4.57" height="4.57"/><rect class="cls-2" x="23.2" y="123.54" width="4.57" height="4.57"/><rect class="cls-2" x="23.2" y="118.97" width="4.57" height="4.57"/><rect x="23.2" y="114.4" width="4.57" height="4.57"/><rect x="23.2" y="109.84" width="4.57" height="4.57"/><rect class="cls-2" x="23.2" y="105.27" width="4.57" height="4.57"/><rect class="cls-2" x="23.2" y="100.7" width="4.57" height="4.57"/><rect class="cls-2" x="23.2" y="96.14" width="4.57" height="4.57"/><rect class="cls-2" x="23.2" y="91.57" width="4.57" height="4.57"/><rect x="23.2" y="87" width="4.57" height="4.57"/><rect class="cls-2" x="23.2" y="82.43" width="4.57" height="4.57"/><rect class="cls-2" x="23.2" y="77.87" width="4.57" height="4.57"/><rect class="cls-2" x="23.2" y="73.3" width="4.57" height="4.57"/><rect x="27.77" y="137.24" width="4.57" height="4.57"/><rect class="cls-2" x="27.77" y="132.67" width="4.57" height="4.57"/><rect class="cls-2" x="27.77" y="128.11" width="4.57" height="4.57"/><rect class="cls-2" x="27.77" y="123.54" width="4.57" height="4.57"/><rect class="cls-2" x="27.77" y="118.97" width="4.57" height="4.57"/><rect x="27.77" y="114.4" width="4.57" height="4.57"/><rect class="cls-2" x="27.77" y="109.84" width="4.57" height="4.57"/><rect class="cls-2" x="27.77" y="105.27" width="4.57" height="4.57"/><rect class="cls-2" x="27.77" y="100.7" width="4.57" height="4.57"/><rect x="27.77" y="96.14" width="4.57" height="4.57"/><rect x="27.77" y="91.57" width="4.57" height="4.57"/><rect class="cls-2" x="27.77" y="87" width="4.57" height="4.57"/><rect class="cls-2" x="27.77" y="82.43" width="4.57" height="4.57"/><rect class="cls-2" x="27.77" y="77.87" width="4.57" height="4.57"/><rect class="cls-2" x="27.77" y="73.3" width="4.57" height="4.57"/><rect x="32.33" y="137.24" width="4.57" height="4.57"/><rect class="cls-2" x="32.33" y="132.67" width="4.57" height="4.57"/><rect class="cls-2" x="32.33" y="128.11" width="4.57" height="4.57"/><rect class="cls-2" x="32.33" y="123.54" width="4.57" height="4.57"/><rect class="cls-2" x="32.33" y="118.97" width="4.57" height="4.57"/><rect class="cls-2" x="32.33" y="114.4" width="4.57" height="4.57"/><rect x="32.33" y="109.84" width="4.57" height="4.57"/><rect x="32.33" y="105.27" width="4.57" height="4.57"/><rect x="32.33" y="100.7" width="4.57" height="4.57"/><rect class="cls-2" x="32.33" y="96.14" width="4.57" height="4.57"/><rect class="cls-2" x="32.33" y="91.57" width="4.57" height="4.57"/><rect class="cls-2" x="32.33" y="87" width="4.57" height="4.57"/><rect class="cls-2" x="32.33" y="82.43" width="4.57" height="4.57"/><rect class="cls-2" x="32.33" y="77.87" width="4.57" height="4.57"/><rect x="32.33" y="73.3" width="4.57" height="4.57"/><rect x="36.9" y="141.81" width="4.57" height="4.57"/><rect x="36.9" y="137.24" width="4.57" height="4.57"/><rect x="36.9" y="132.67" width="4.57" height="4.57"/><rect x="36.9" y="128.11" width="4.57" height="4.57"/><rect x="36.9" y="123.54" width="4.57" height="4.57"/><rect x="36.9" y="118.97" width="4.57" height="4.57"/><rect x="36.9" y="114.4" width="4.57" height="4.57"/><rect x="36.9" y="109.84" width="4.57" height="4.57"/><rect x="36.9" y="105.27" width="4.57" height="4.57"/><rect x="36.9" y="100.7" width="4.57" height="4.57"/><rect x="36.9" y="96.14" width="4.57" height="4.57"/><rect x="36.9" y="91.57" width="4.57" height="4.57"/><rect x="36.9" y="87" width="4.57" height="4.57"/><rect x="36.9" y="82.43" width="4.57" height="4.57"/><rect x="36.9" y="77.87" width="4.57" height="4.57"/><rect x="36.9" y="73.3" width="4.57" height="4.57"/><rect x="41.47" y="141.81" width="4.57" height="4.57"/><rect class="cls-2" x="41.47" y="137.24" width="4.57" height="4.57"/><rect class="cls-2" x="41.47" y="132.67" width="4.57" height="4.57"/><rect class="cls-2" x="41.47" y="128.11" width="4.57" height="4.57"/><rect class="cls-2" x="41.47" y="123.54" width="4.57" height="4.57"/><rect class="cls-2" x="41.47" y="118.97" width="4.57" height="4.57"/><rect class="cls-2" x="41.47" y="114.4" width="4.57" height="4.57"/><rect class="cls-2" x="41.47" y="109.84" width="4.57" height="4.57"/><rect class="cls-2" x="41.47" y="105.27" width="4.57" height="4.57"/><rect class="cls-2" x="41.47" y="100.7" width="4.57" height="4.57"/><rect class="cls-2" x="41.47" y="96.14" width="4.57" height="4.57"/><rect class="cls-2" x="41.47" y="91.57" width="4.57" height="4.57"/><rect class="cls-2" x="41.47" y="87" width="4.57" height="4.57"/><rect class="cls-2" x="41.47" y="82.43" width="4.57" height="4.57"/><rect class="cls-2" x="41.47" y="77.87" width="4.57" height="4.57"/><rect x="41.47" y="73.3" width="4.57" height="4.57"/><rect x="46.04" y="137.24" width="4.57" height="4.57"/><rect class="cls-2" x="46.04" y="132.67" width="4.57" height="4.57"/><rect class="cls-2" x="46.04" y="128.11" width="4.57" height="4.57"/><rect class="cls-2" x="46.04" y="123.54" width="4.57" height="4.57"/><rect class="cls-2" x="46.04" y="118.97" width="4.57" height="4.57"/><rect class="cls-2" x="46.04" y="114.4" width="4.57" height="4.57"/><rect class="cls-2" x="46.04" y="109.84" width="4.57" height="4.57"/><rect class="cls-2" x="46.04" y="105.27" width="4.57" height="4.57"/><rect class="cls-2" x="46.04" y="100.7" width="4.57" height="4.57"/><rect x="46.04" y="96.14" width="4.57" height="4.57"/><rect x="46.04" y="91.57" width="4.57" height="4.57"/><rect x="46.04" y="87" width="4.57" height="4.57"/><rect class="cls-2" x="46.04" y="82.43" width="4.57" height="4.57"/><rect class="cls-2" x="46.04" y="77.87" width="4.57" height="4.57"/><rect class="cls-2" x="46.04" y="73.3" width="4.57" height="4.57"/><rect x="50.6" y="137.24" width="4.57" height="4.57"/><rect class="cls-2" x="50.6" y="132.67" width="4.57" height="4.57"/><rect class="cls-2" x="50.6" y="128.11" width="4.57" height="4.57"/><rect class="cls-2" x="50.6" y="123.54" width="4.57" height="4.57"/><rect x="50.6" y="118.97" width="4.57" height="4.57"/><rect x="50.6" y="114.4" width="4.57" height="4.57"/><rect class="cls-2" x="50.6" y="109.84" width="4.57" height="4.57"/><rect class="cls-2" x="50.6" y="105.27" width="4.57" height="4.57"/><rect x="50.6" y="100.7" width="4.57" height="4.57"/><rect class="cls-1" x="50.6" y="96.14" width="4.57" height="4.57"/><rect class="cls-1" x="50.6" y="91.57" width="4.57" height="4.57"/><rect class="cls-1" x="50.6" y="87" width="4.57" height="4.57"/><rect x="50.6" y="82.43" width="4.57" height="4.57"/><rect class="cls-2" x="50.6" y="77.87" width="4.57" height="4.57"/><rect class="cls-2" x="50.6" y="73.3" width="4.57" height="4.57"/><rect x="55.17" y="132.67" width="4.57" height="4.57"/><rect class="cls-2" x="55.17" y="128.11" width="4.57" height="4.57"/><rect class="cls-2" x="55.17" y="123.54" width="4.57" height="4.57"/><rect x="55.17" y="118.97" width="4.57" height="4.57"/><rect class="cls-2" x="55.17" y="114.4" width="4.57" height="4.57"/><rect x="55.17" y="109.84" width="4.57" height="4.57"/><rect class="cls-2" x="55.17" y="105.27" width="4.57" height="4.57"/><rect x="55.17" y="100.7" width="4.57" height="4.57"/><rect class="cls-1" x="55.17" y="96.14" width="4.57" height="4.57"/><rect class="cls-1" x="55.17" y="91.57" width="4.57" height="4.57"/><rect class="cls-1" x="55.17" y="87" width="4.57" height="4.57"/><rect class="cls-1" x="55.17" y="82.43" width="4.57" height="4.57"/><rect x="55.17" y="77.87" width="4.57" height="4.57"/><rect class="cls-2" x="55.17" y="73.3" width="4.57" height="4.57"/><rect x="59.74" y="128.11" width="4.57" height="4.57"/><rect class="cls-2" x="59.74" y="123.54" width="4.57" height="4.57"/><rect x="59.74" y="118.97" width="4.57" height="4.57"/><rect class="cls-2" x="59.74" y="114.4" width="4.57" height="4.57"/><rect x="59.74" y="109.84" width="4.57" height="4.57"/><rect class="cls-2" x="59.74" y="105.27" width="4.57" height="4.57"/><rect class="cls-2" x="59.74" y="100.7" width="4.57" height="4.57"/><rect x="59.74" y="96.14" width="4.57" height="4.57"/><rect class="cls-1" x="59.74" y="91.57" width="4.57" height="4.57"/><rect class="cls-1" x="59.74" y="87" width="4.57" height="4.57"/><rect class="cls-1" x="59.74" y="82.43" width="4.57" height="4.57"/><rect x="59.74" y="77.87" width="4.57" height="4.57"/><rect class="cls-2" x="59.74" y="73.3" width="4.57" height="4.57"/><rect x="64.31" y="128.11" width="4.57" height="4.57"/><rect class="cls-2" x="64.31" y="123.54" width="4.57" height="4.57"/><rect class="cls-2" x="64.31" y="118.97" width="4.57" height="4.57"/><rect x="64.31" y="114.4" width="4.57" height="4.57"/><rect class="cls-2" x="64.31" y="109.84" width="4.57" height="4.57"/><rect x="64.31" y="105.27" width="4.57" height="4.57"/><rect class="cls-2" x="64.31" y="100.7" width="4.57" height="4.57"/><rect class="cls-2" x="64.31" y="96.14" width="4.57" height="4.57"/><rect x="64.31" y="91.57" width="4.57" height="4.57"/><rect x="64.31" y="87" width="4.57" height="4.57"/><rect x="64.31" y="82.43" width="4.57" height="4.57"/><rect class="cls-2" x="64.31" y="77.87" width="4.57" height="4.57"/><rect class="cls-2" x="64.31" y="73.3" width="4.57" height="4.57"/><rect x="68.87" y="123.54" width="4.57" height="4.57"/><rect class="cls-2" x="68.87" y="118.97" width="4.57" height="4.57"/><rect x="68.87" y="114.4" width="4.57" height="4.57"/><rect class="cls-2" x="68.87" y="109.84" width="4.57" height="4.57"/><rect x="68.87" y="105.27" width="4.57" height="4.57"/><rect class="cls-2" x="68.87" y="100.7" width="4.57" height="4.57"/><rect class="cls-2" x="68.87" y="96.14" width="4.57" height="4.57"/><rect class="cls-2" x="68.87" y="91.57" width="4.57" height="4.57"/><rect class="cls-2" x="68.87" y="87" width="4.57" height="4.57"/><rect class="cls-2" x="68.87" y="82.43" width="4.57" height="4.57"/><rect class="cls-2" x="68.87" y="77.87" width="4.57" height="4.57"/><rect class="cls-2" x="68.87" y="73.3" width="4.57" height="4.57"/><rect x="73.44" y="123.54" width="4.57" height="4.57"/><rect class="cls-2" x="73.44" y="118.97" width="4.57" height="4.57"/><rect class="cls-2" x="73.44" y="114.4" width="4.57" height="4.57"/><rect x="73.44" y="109.84" width="4.57" height="4.57"/><rect class="cls-2" x="73.44" y="105.27" width="4.57" height="4.57"/><rect x="73.44" y="100.7" width="4.57" height="4.57"/><rect class="cls-2" x="73.44" y="96.14" width="4.57" height="4.57"/><rect class="cls-2" x="73.44" y="91.57" width="4.57" height="4.57"/><rect class="cls-2" x="73.44" y="87" width="4.57" height="4.57"/><rect x="73.44" y="82.43" width="4.57" height="4.57"/><rect x="73.44" y="77.87" width="4.57" height="4.57"/><rect x="73.44" y="73.3" width="4.57" height="4.57"/><rect x="78.01" y="118.97" width="4.57" height="4.57"/><rect class="cls-2" x="78.01" y="114.4" width="4.57" height="4.57"/><rect x="78.01" y="109.84" width="4.57" height="4.57"/><rect class="cls-2" x="78.01" y="105.27" width="4.57" height="4.57"/><rect x="78.01" y="100.7" width="4.57" height="4.57"/><rect class="cls-2" x="78.01" y="96.14" width="4.57" height="4.57"/><rect class="cls-2" x="78.01" y="91.57" width="4.57" height="4.57"/><rect x="78.01" y="87" width="4.57" height="4.57"/><rect class="cls-1" x="78.01" y="82.43" width="4.57" height="4.57"/><rect class="cls-1" x="78.01" y="77.87" width="4.57" height="4.57"/><rect class="cls-1" x="78.01" y="73.3" width="4.57" height="4.57"/><rect x="82.58" y="118.97" width="4.57" height="4.57"/><rect class="cls-2" x="82.58" y="114.4" width="4.57" height="4.57"/><rect class="cls-2" x="82.58" y="109.84" width="4.57" height="4.57"/><rect x="82.58" y="105.27" width="4.57" height="4.57"/><rect class="cls-2" x="82.58" y="100.7" width="4.57" height="4.57"/><rect x="82.58" y="96.14" width="4.57" height="4.57"/><rect class="cls-2" x="82.58" y="91.57" width="4.57" height="4.57"/><rect x="82.58" y="87" width="4.57" height="4.57"/><rect class="cls-1" x="82.58" y="82.43" width="4.57" height="4.57"/><rect class="cls-1" x="82.58" y="77.87" width="4.57" height="4.57"/><rect class="cls-1" x="82.58" y="73.3" width="4.57" height="4.57"/><rect x="87.14" y="114.4" width="4.57" height="4.57"/><rect class="cls-2" x="87.14" y="109.84" width="4.57" height="4.57"/><rect class="cls-2" x="87.14" y="105.27" width="4.57" height="4.57"/><rect x="87.14" y="100.7" width="4.57" height="4.57"/><rect x="87.14" y="96.14" width="4.57" height="4.57"/><rect class="cls-2" x="87.14" y="91.57" width="4.57" height="4.57"/><rect class="cls-2" x="87.14" y="87" width="4.57" height="4.57"/><rect x="87.14" y="82.43" width="4.57" height="4.57"/><rect class="cls-1" x="87.14" y="77.87" width="4.57" height="4.57"/><rect class="cls-1" x="87.14" y="73.3" width="4.57" height="4.57"/><rect x="91.71" y="109.84" width="4.57" height="4.57"/><rect class="cls-2" x="91.71" y="105.27" width="4.57" height="4.57"/><rect class="cls-2" x="91.71" y="100.7" width="4.57" height="4.57"/><rect class="cls-2" x="91.71" y="96.14" width="4.57" height="4.57"/><rect class="cls-2" x="91.71" y="91.57" width="4.57" height="4.57"/><rect class="cls-2" x="91.71" y="87" width="4.57" height="4.57"/><rect class="cls-2" x="91.71" y="82.43" width="4.57" height="4.57"/><rect x="91.71" y="77.87" width="4.57" height="4.57"/><rect x="91.71" y="73.3" width="4.57" height="4.57"/><rect x="96.28" y="109.84" width="4.57" height="4.57"/><rect class="cls-2" x="96.28" y="105.27" width="4.57" height="4.57"/><rect class="cls-2" x="96.28" y="100.7" width="4.57" height="4.57"/><rect class="cls-2" x="96.28" y="96.14" width="4.57" height="4.57"/><rect class="cls-2" x="96.28" y="91.57" width="4.57" height="4.57"/><rect class="cls-2" x="96.28" y="87" width="4.57" height="4.57"/><rect class="cls-2" x="96.28" y="82.43" width="4.57" height="4.57"/><rect class="cls-2" x="96.28" y="77.87" width="4.57" height="4.57"/><rect class="cls-2" x="96.28" y="73.3" width="4.57" height="4.57"/><rect x="100.84" y="105.27" width="4.57" height="4.57"/><rect x="100.84" y="100.7" width="4.57" height="4.57"/><rect x="100.84" y="96.14" width="4.57" height="4.57"/><rect x="100.84" y="91.57" width="4.57" height="4.57"/><rect x="100.84" y="87" width="4.57" height="4.57"/><rect x="100.84" y="82.43" width="4.57" height="4.57"/><rect x="100.84" y="77.87" width="4.57" height="4.57"/><rect x="100.84" y="73.3" width="4.57" height="4.57"/><rect x="105.41" y="82.43" width="4.57" height="4.57"/><rect class="cls-2" x="105.41" y="77.87" width="4.57" height="4.57"/><rect class="cls-2" x="105.41" y="73.3" width="4.57" height="4.57"/><rect x="109.98" y="77.87" width="4.57" height="4.57"/><rect x="109.98" y="73.3" width="4.57" height="4.57"/><rect x="4.93" y="68.73" width="4.57" height="4.57"/><rect x="4.93" y="64.16" width="4.57" height="4.57"/><rect x="4.93" y="59.6" width="4.57" height="4.57"/><rect x="4.93" y="55.03" width="4.57" height="4.57"/><rect class="cls-2" x="9.5" y="68.73" width="4.57" height="4.57"/><rect class="cls-2" x="9.5" y="64.16" width="4.57" height="4.57"/><rect x="9.5" y="59.6" width="4.57" height="4.57"/><rect x="9.5" y="55.03" width="4.57" height="4.57"/><rect class="cls-2" x="14.07" y="68.73" width="4.57" height="4.57"/><rect x="14.07" y="64.16" width="4.57" height="4.57"/><rect x="14.07" y="59.6" width="4.57" height="4.57"/><rect x="14.07" y="55.03" width="4.57" height="4.57"/><rect x="14.07" y="50.46" width="4.57" height="4.57"/><rect class="cls-2" x="18.63" y="68.73" width="4.57" height="4.57"/><rect x="18.63" y="64.16" width="4.57" height="4.57"/><rect x="18.63" y="59.6" width="4.57" height="4.57"/><rect x="18.63" y="55.03" width="4.57" height="4.57"/><rect x="18.63" y="50.46" width="4.57" height="4.57"/><rect x="18.63" y="45.89" width="4.57" height="4.57"/><rect x="23.2" y="68.73" width="4.57" height="4.57"/><rect x="23.2" y="64.16" width="4.57" height="4.57"/><rect x="23.2" y="59.6" width="4.57" height="4.57"/><rect x="23.2" y="55.03" width="4.57" height="4.57"/><rect x="23.2" y="50.46" width="4.57" height="4.57"/><rect x="23.2" y="45.89" width="4.57" height="4.57"/><rect x="27.77" y="68.73" width="4.57" height="4.57"/><rect x="27.77" y="64.16" width="4.57" height="4.57"/><rect x="27.77" y="59.6" width="4.57" height="4.57"/><rect x="27.77" y="55.03" width="4.57" height="4.57"/><rect x="27.77" y="50.46" width="4.57" height="4.57"/><rect x="27.77" y="45.89" width="4.57" height="4.57"/><rect x="27.77" y="41.33" width="4.57" height="4.57"/><rect x="32.33" y="68.73" width="4.57" height="4.57"/><rect x="32.33" y="64.16" width="4.57" height="4.57"/><rect x="32.33" y="59.6" width="4.57" height="4.57"/><rect x="32.33" y="55.03" width="4.57" height="4.57"/><rect x="32.33" y="50.46" width="4.57" height="4.57"/><rect x="32.33" y="45.89" width="4.57" height="4.57"/><rect x="32.33" y="41.33" width="4.57" height="4.57"/><rect x="36.9" y="68.73" width="4.57" height="4.57"/><rect x="36.9" y="64.16" width="4.57" height="4.57"/><rect x="36.9" y="59.6" width="4.57" height="4.57"/><rect x="36.9" y="55.03" width="4.57" height="4.57"/><rect x="36.9" y="50.46" width="4.57" height="4.57"/><rect x="36.9" y="45.89" width="4.57" height="4.57"/><rect x="36.9" y="41.33" width="4.57" height="4.57"/><rect x="36.9" y="36.76" width="4.57" height="4.57"/><rect x="41.47" y="68.73" width="4.57" height="4.57"/><rect x="41.47" y="64.16" width="4.57" height="4.57"/><rect x="41.47" y="59.6" width="4.57" height="4.57"/><rect x="41.47" y="55.03" width="4.57" height="4.57"/><rect x="41.47" y="50.46" width="4.57" height="4.57"/><rect x="41.47" y="45.89" width="4.57" height="4.57"/><rect x="41.47" y="41.33" width="4.57" height="4.57"/><rect x="41.47" y="36.76" width="4.57" height="4.57"/><rect x="41.47" y="13.92" width="4.57" height="4.57"/><rect x="41.47" y="9.36" width="4.57" height="4.57"/><rect x="41.47" y="4.79" width="4.57" height="4.57"/><rect x="46.04" y="68.73" width="4.57" height="4.57"/><rect x="46.04" y="64.16" width="4.57" height="4.57"/><rect x="46.04" y="59.6" width="4.57" height="4.57"/><rect x="46.04" y="55.03" width="4.57" height="4.57"/><rect x="46.04" y="50.46" width="4.57" height="4.57"/><rect x="46.04" y="45.89" width="4.57" height="4.57"/><rect x="46.04" y="41.33" width="4.57" height="4.57"/><rect x="46.04" y="36.76" width="4.57" height="4.57"/><rect x="46.04" y="32.19" width="4.57" height="4.57"/><rect x="46.04" y="18.49" width="4.57" height="4.57"/><rect class="cls-2" x="46.04" y="13.92" width="4.57" height="4.57"/><rect class="cls-2" x="46.04" y="9.36" width="4.57" height="4.57"/><rect class="cls-2" x="46.04" y="4.79" width="4.57" height="4.57"/><rect x="46.04" y=".22" width="4.57" height="4.57"/><rect x="50.6" y="68.73" width="4.57" height="4.57"/><rect x="50.6" y="64.16" width="4.57" height="4.57"/><rect x="50.6" y="59.6" width="4.57" height="4.57"/><rect x="50.6" y="55.03" width="4.57" height="4.57"/><rect x="50.6" y="50.46" width="4.57" height="4.57"/><rect x="50.6" y="45.89" width="4.57" height="4.57"/><rect class="cls-2" x="50.6" y="41.33" width="4.57" height="4.57"/><rect class="cls-2" x="50.6" y="36.76" width="4.57" height="4.57"/><rect class="cls-2" x="50.6" y="32.19" width="4.57" height="4.57"/><rect x="50.6" y="27.63" width="4.57" height="4.57"/><rect x="50.6" y="23.06" width="4.57" height="4.57"/><rect x="50.6" y="18.49" width="4.57" height="4.57"/><rect class="cls-2" x="50.6" y="13.92" width="4.57" height="4.57"/><rect class="cls-2" x="50.6" y="9.36" width="4.57" height="4.57"/><rect class="cls-2" x="50.6" y="4.79" width="4.57" height="4.57"/><rect x="50.6" y=".22" width="4.57" height="4.57"/><rect class="cls-2" x="55.17" y="68.73" width="4.57" height="4.57"/><rect x="55.17" y="64.16" width="4.57" height="4.57"/><rect x="55.17" y="59.6" width="4.57" height="4.57"/><rect x="55.17" y="55.03" width="4.57" height="4.57"/><rect x="55.17" y="50.46" width="4.57" height="4.57"/><rect x="55.17" y="45.89" width="4.57" height="4.57"/><rect x="55.17" y="41.33" width="4.57" height="4.57"/><rect x="55.17" y="36.76" width="4.57" height="4.57"/><rect x="55.17" y="32.19" width="4.57" height="4.57"/><rect x="55.17" y="27.63" width="4.57" height="4.57"/><rect x="55.17" y="18.49" width="4.57" height="4.57"/><rect class="cls-2" x="55.17" y="13.92" width="4.57" height="4.57"/><rect class="cls-2" x="55.17" y="9.36" width="4.57" height="4.57"/><rect class="cls-2" x="55.17" y="4.79" width="4.57" height="4.57"/><rect x="55.17" y=".22" width="4.57" height="4.57"/><rect class="cls-2" x="59.74" y="68.73" width="4.57" height="4.57"/><rect x="59.74" y="64.16" width="4.57" height="4.57"/><rect x="59.74" y="59.6" width="4.57" height="4.57"/><rect x="59.74" y="55.03" width="4.57" height="4.57"/><rect x="59.74" y="50.46" width="4.57" height="4.57"/><rect x="59.74" y="45.89" width="4.57" height="4.57"/><rect x="59.74" y="41.33" width="4.57" height="4.57"/><rect x="59.74" y="36.76" width="4.57" height="4.57"/><rect x="59.74" y="32.19" width="4.57" height="4.57"/><rect x="59.74" y="27.63" width="4.57" height="4.57"/><rect x="59.74" y="23.06" width="4.57" height="4.57"/><rect x="59.74" y="13.92" width="4.57" height="4.57"/><rect x="59.74" y="9.36" width="4.57" height="4.57"/><rect x="59.74" y="4.79" width="4.57" height="4.57"/><rect class="cls-2" x="64.31" y="68.73" width="4.57" height="4.57"/><rect class="cls-2" x="64.31" y="64.16" width="4.57" height="4.57"/><rect x="64.31" y="59.6" width="4.57" height="4.57"/><rect x="64.31" y="55.03" width="4.57" height="4.57"/><rect x="64.31" y="50.46" width="4.57" height="4.57"/><rect x="64.31" y="45.89" width="4.57" height="4.57"/><rect x="64.31" y="41.33" width="4.57" height="4.57"/><rect x="64.31" y="36.76" width="4.57" height="4.57"/><rect x="64.31" y="32.19" width="4.57" height="4.57"/><rect x="64.31" y="27.63" width="4.57" height="4.57"/><rect x="64.31" y="23.06" width="4.57" height="4.57"/><rect class="cls-2" x="68.87" y="68.73" width="4.57" height="4.57"/><rect class="cls-2" x="68.87" y="64.16" width="4.57" height="4.57"/><rect class="cls-2" x="68.87" y="59.6" width="4.57" height="4.57"/><rect x="68.87" y="55.03" width="4.57" height="4.57"/><rect x="68.87" y="50.46" width="4.57" height="4.57"/><rect x="68.87" y="45.89" width="4.57" height="4.57"/><rect x="68.87" y="41.33" width="4.57" height="4.57"/><rect x="68.87" y="36.76" width="4.57" height="4.57"/><rect x="68.87" y="32.19" width="4.57" height="4.57"/><rect x="68.87" y="27.63" width="4.57" height="4.57"/><rect x="68.87" y="23.06" width="4.57" height="4.57"/><rect x="68.87" y="18.49" width="4.57" height="4.57"/><rect class="cls-2" x="73.44" y="68.73" width="4.57" height="4.57"/><rect class="cls-2" x="73.44" y="64.16" width="4.57" height="4.57"/><rect class="cls-2" x="73.44" y="59.6" width="4.57" height="4.57"/><rect x="73.44" y="55.03" width="4.57" height="4.57"/><rect x="73.44" y="50.46" width="4.57" height="4.57"/><rect x="73.44" y="45.89" width="4.57" height="4.57"/><rect x="73.44" y="41.33" width="4.57" height="4.57"/><rect x="73.44" y="36.76" width="4.57" height="4.57"/><rect x="73.44" y="32.19" width="4.57" height="4.57"/><rect x="73.44" y="27.63" width="4.57" height="4.57"/><rect x="73.44" y="23.06" width="4.57" height="4.57"/><rect x="78.01" y="68.73" width="4.57" height="4.57"/><rect class="cls-2" x="78.01" y="64.16" width="4.57" height="4.57"/><rect class="cls-2" x="78.01" y="59.6" width="4.57" height="4.57"/><rect class="cls-2" x="78.01" y="55.03" width="4.57" height="4.57"/><rect x="78.01" y="50.46" width="4.57" height="4.57"/><rect x="78.01" y="45.89" width="4.57" height="4.57"/><rect x="78.01" y="41.33" width="4.57" height="4.57"/><rect x="78.01" y="36.76" width="4.57" height="4.57"/><rect x="78.01" y="32.19" width="4.57" height="4.57"/><rect x="78.01" y="27.63" width="4.57" height="4.57"/><rect x="78.01" y="23.06" width="4.57" height="4.57"/><rect class="cls-1" x="82.58" y="68.73" width="4.57" height="4.57"/><rect x="82.58" y="64.16" width="4.57" height="4.57"/><rect class="cls-2" x="82.58" y="59.6" width="4.57" height="4.57"/><rect class="cls-2" x="82.58" y="55.03" width="4.57" height="4.57"/><rect x="82.58" y="50.46" width="4.57" height="4.57"/><rect x="82.58" y="45.89" width="4.57" height="4.57"/><rect x="82.58" y="41.33" width="4.57" height="4.57"/><rect x="82.58" y="36.76" width="4.57" height="4.57"/><rect x="82.58" y="32.19" width="4.57" height="4.57"/><rect x="82.58" y="27.63" width="4.57" height="4.57"/><rect class="cls-1" x="87.14" y="68.73" width="4.57" height="4.57"/><rect x="87.14" y="64.16" width="4.57" height="4.57"/><rect class="cls-2" x="87.14" y="59.6" width="4.57" height="4.57"/><rect class="cls-2" x="87.14" y="55.03" width="4.57" height="4.57"/><rect class="cls-2" x="87.14" y="50.46" width="4.57" height="4.57"/><rect x="87.14" y="45.89" width="4.57" height="4.57"/><rect x="87.14" y="41.33" width="4.57" height="4.57"/><rect x="87.14" y="36.76" width="4.57" height="4.57"/><rect x="87.14" y="32.19" width="4.57" height="4.57"/><rect x="87.14" y="27.63" width="4.57" height="4.57"/><rect x="91.71" y="68.73" width="4.57" height="4.57"/><rect class="cls-2" x="91.71" y="64.16" width="4.57" height="4.57"/><rect class="cls-2" x="91.71" y="59.6" width="4.57" height="4.57"/><rect class="cls-2" x="91.71" y="55.03" width="4.57" height="4.57"/><rect class="cls-2" x="91.71" y="50.46" width="4.57" height="4.57"/><rect x="91.71" y="45.89" width="4.57" height="4.57"/><rect x="91.71" y="41.33" width="4.57" height="4.57"/><rect x="91.71" y="36.76" width="4.57" height="4.57"/><rect x="91.71" y="32.19" width="4.57" height="4.57"/><rect class="cls-2" x="96.28" y="68.73" width="4.57" height="4.57"/><rect class="cls-2" x="96.28" y="64.16" width="4.57" height="4.57"/><rect class="cls-2" x="96.28" y="59.6" width="4.57" height="4.57"/><rect class="cls-2" x="96.28" y="55.03" width="4.57" height="4.57"/><rect class="cls-2" x="96.28" y="50.46" width="4.57" height="4.57"/><rect class="cls-2" x="96.28" y="45.89" width="4.57" height="4.57"/><rect x="96.28" y="41.33" width="4.57" height="4.57"/><rect x="96.28" y="36.76" width="4.57" height="4.57"/><rect x="100.84" y="68.73" width="4.57" height="4.57"/><rect x="100.84" y="64.16" width="4.57" height="4.57"/><rect x="100.84" y="59.6" width="4.57" height="4.57"/><rect x="100.84" y="55.03" width="4.57" height="4.57"/><rect x="100.84" y="50.46" width="4.57" height="4.57"/><rect x="100.84" y="45.89" width="4.57" height="4.57"/><rect x="100.84" y="41.33" width="4.57" height="4.57"/><rect x="100.84" y="36.76" width="4.57" height="4.57"/><rect class="cls-2" x="105.41" y="68.73" width="4.57" height="4.57"/><rect class="cls-2" x="105.41" y="64.16" width="4.57" height="4.57"/><rect x="105.41" y="59.6" width="4.57" height="4.57"/><rect x="109.98" y="68.73" width="4.57" height="4.57"/><rect x="109.98" y="64.16" width="4.57" height="4.57"/></svg>